<?xml version="1.0" encoding="UTF-8" standalone="no"?>
<svg width="98px" height="100px" viewBox="0 0 98 100" version="1.1" xmlns="http://www.w3.org/2000/svg" xmlns:xlink="http://www.w3.org/1999/xlink">
    <!-- Generator: Sketch 3.6 (26304) - http://www.bohemiancoding.com/sketch -->
    <title>Basic Health check</title>
    <desc>Created with Sketch.</desc>
    <defs></defs>
    <g id="Page-1" stroke="none" stroke-width="1" fill="none" fill-rule="evenodd">
        <g id="Basic-Health-check">
            <path d="M97.973,49.9 C97.973,77.273 76.044,99.464 48.992,99.464 C21.941,99.464 0.012,77.273 0.012,49.9 C0.012,22.527 21.941,0.337 48.992,0.337 C76.044,0.337 97.973,22.527 97.973,49.9" id="Fill-12" fill="#9999B1"></path>
            <path d="M1.292,38.596 C0.803,39.974 0.012,43.268 0.012,49.918 C0.012,73.317 15.605,92.909 37.899,98.187 L49.929,90.499 L50.833,24.123 L26.202,28.256 L1.292,38.596" id="Fill-13" fill="#888494"></path>
            <path d="M49.265,93.686 C48.608,93.575 48.608,90.339 48.608,90.339 L49.929,91.484 C49.929,91.484 49.922,93.796 49.265,93.686" id="Fill-14" fill="#FFFFFF"></path>
            <path d="M48.608,84.792 L49.929,88.49 L49.929,82.745 C49.929,82.745 50.061,82.481 49.401,81.424 C48.74,80.368 48.608,80.5 48.608,80.5 L48.608,84.792" id="Fill-15" fill="#FFFFFF"></path>
            <path d="M48.322,75.855 L50.149,77.22 L50.149,71.98 C50.149,71.98 49.745,71.456 49.236,71.1 C48.726,70.744 48.322,70.594 48.322,70.594 L48.322,75.855" id="Fill-16" fill="#FFFFFF"></path>
            <path d="M48.322,66.059 L50.149,67.446 L50.303,59.367 C50.303,59.367 49.956,59.133 49.313,58.905 C48.669,58.676 48.322,58.552 48.322,58.552 L48.322,66.059" id="Fill-17" fill="#FFFFFF"></path>
            <path d="M48.058,54.018 L50.413,54.942 L50.413,46.643 L48.058,46.489 L48.058,54.018" id="Fill-18" fill="#FFFFFF"></path>
            <path d="M47.904,41.778 C47.904,41.778 48.234,41.712 49.115,41.778 C49.995,41.844 50.567,42.087 50.567,42.087 L50.92,15.605 C50.92,15.605 52.411,14.523 52.527,12.985 C52.635,11.532 51.435,9.617 49.265,9.617 C47.126,9.617 45.923,11.092 45.923,12.765 C45.923,14.816 47.596,15.627 47.596,15.627 L47.904,41.778" id="Fill-19" fill="#FFFFFF"></path>
            <path d="M46.979,29.693 L46.979,22.715 C46.979,22.715 45.79,22.869 44.844,22.715 C43.897,22.561 43.743,21.526 43.743,21.526 C43.743,21.526 42.004,15.032 38.702,15.032 C35.4,15.032 29.479,18.973 29.479,18.973 C29.479,18.973 26.265,21.174 21.884,21.57 C17.504,21.966 15.126,20.822 15.126,20.822 C15.126,20.822 14.202,20.447 13.959,20.778 C13.717,21.108 14.113,22.12 14.113,22.12 C14.113,22.12 14.796,23.794 16.909,24.388 C19.022,24.982 19.881,25.048 19.881,25.048 C19.881,25.048 19.419,25.202 19.771,25.852 C20.123,26.501 21.62,26.457 22.611,26.369 C23.601,26.281 25.076,25.852 25.076,25.852 C25.076,25.852 24.57,26.875 25.78,27.756 C26.991,28.636 29.545,27.624 29.545,27.624 C29.545,27.624 29.479,29.187 31.196,29.561 C32.913,29.935 34.85,28.989 34.85,28.989 C34.85,28.989 34.696,30.023 36.259,30.419 C37.822,30.816 40.067,29.165 40.067,29.165 C40.067,29.165 40.595,30.441 42.158,30.75 C43.721,31.058 46.979,29.693 46.979,29.693" id="Fill-20" fill="#FFFFFF"></path>
            <path d="M51.656,29.825 L51.656,22.847 C51.656,22.847 52.844,23.001 53.791,22.847 C54.738,22.693 54.892,21.658 54.892,21.658 C54.892,21.658 56.631,15.164 59.933,15.164 C63.235,15.164 69.156,19.105 69.156,19.105 C69.156,19.105 72.37,21.306 76.751,21.702 C81.131,22.098 83.509,20.954 83.509,20.954 C83.509,20.954 84.433,20.58 84.676,20.91 C84.918,21.24 84.521,22.253 84.521,22.253 C84.521,22.253 83.839,23.926 81.726,24.52 C79.612,25.114 78.754,25.18 78.754,25.18 C78.754,25.18 79.216,25.334 78.864,25.984 C78.512,26.633 77.015,26.589 76.024,26.501 C75.034,26.413 73.559,25.984 73.559,25.984 C73.559,25.984 74.065,27.007 72.854,27.888 C71.644,28.768 69.09,27.756 69.09,27.756 C69.09,27.756 69.156,29.319 67.439,29.693 C65.722,30.067 63.785,29.121 63.785,29.121 C63.785,29.121 63.939,30.155 62.376,30.552 C60.813,30.948 58.568,29.297 58.568,29.297 C58.568,29.297 58.04,30.574 56.477,30.882 C54.914,31.19 51.656,29.825 51.656,29.825" id="Fill-21" fill="#FFFFFF"></path>
            <path d="M50.622,90.901 C50.622,90.901 46.627,87.665 46.264,84.297 C45.901,80.929 47.287,79.509 47.287,79.509 L47.618,79.707 C47.618,79.707 47.624,80.26 47.61,81.82 C47.606,82.33 47.649,84.306 47.641,84.794 C47.608,86.775 50.622,90.901 50.622,90.901" id="Fill-22" fill="#FFFFFF"></path>
            <path d="M50.788,87.764 L50.788,82.976 C50.788,82.976 50.876,82.217 50.303,80.962 C49.731,79.707 46.171,77.726 45.24,76.405 C44.309,75.084 44.084,74.391 44.349,72.905 C44.613,71.419 46.627,69.537 46.627,69.537 L47.519,70.098 L47.519,71.617 C47.519,71.617 46.203,72.542 46.203,74.193 C46.203,75.844 49.269,77.693 49.269,77.693 C49.269,77.693 51.283,78.849 52.24,81.424 C53.165,84.297 50.788,87.764 50.788,87.764" id="Fill-23" fill="#FFFFFF"></path>
            <path d="M50.953,76.306 L50.953,77.891 L51.382,78.287 C51.382,78.287 54.288,76.504 54.288,73.4 C54.307,71.122 52.224,69.788 52.224,69.788 C52.224,69.788 49.654,68.315 48.058,67.027 C46.462,65.74 44.547,63.957 44.745,62.108 C44.943,60.258 47.32,58.971 47.32,58.971 L47.353,58.145 L45.24,57.419 C45.24,57.419 42.4,58.574 42.4,62.24 C42.4,65.905 46.891,68.712 46.891,68.712 C46.891,68.712 52.454,71.452 52.454,73.664 C52.454,75.877 50.953,76.306 50.953,76.306" id="Fill-24" fill="#FFFFFF"></path>
            <path d="M51.019,66.499 L51.019,67.985 L51.943,68.48 C51.943,68.48 56.434,65.641 56.071,61.447 C55.714,59.408 54.197,57.452 51.613,56.494 C49.029,55.537 44.547,53.423 43.886,53.126 C43.226,52.829 41.443,51.442 42.07,49.131 C42.698,46.819 45.405,46.225 45.405,46.225 C45.405,46.225 43.49,46.126 42.4,46.027 C41.311,45.928 40.683,45.565 40.683,45.565 C40.683,45.565 38.141,46.654 38.57,50.485 C38.999,54.315 48.058,57.419 48.058,57.419 C48.058,57.419 53.924,59.301 53.792,62.207 C53.66,65.112 51.019,66.499 51.019,66.499" id="Fill-25" fill="#FFFFFF"></path>
            <path d="M51.217,54.579 L51.217,55.173 L53.297,56.362 C53.297,56.362 59.439,54.348 60.033,49.56 C60.594,44.211 51.957,43.22 49.566,42.956 C47.174,42.692 49.334,42.932 41.047,42.087 C34.146,40.81 33.716,38.663 33.848,37.772 C33.98,36.88 34.971,36.88 34.971,36.88 L39.132,36.88 C39.132,36.88 41.113,38.102 42.037,38.234 C42.962,38.366 45.108,38.3 45.504,37.277 C45.901,36.253 44.051,34.767 43.226,34.47 C42.4,34.173 39.198,34.668 39.198,34.668 C39.198,34.668 31.735,34.701 31.405,37.409 C31.075,40.116 34.575,42.087 34.575,42.087 C34.575,42.087 38.209,44.845 43.919,45.35 C49.629,45.855 51.217,45.994 51.217,45.994 C51.217,45.994 56.599,46.588 56.566,49.923 C56.533,53.258 51.217,54.579 51.217,54.579" id="Fill-26" fill="#FFFFFF"></path>
            <path d="M52.769,42.593 L55.641,43.418 L58.052,44.706 C58.052,44.706 60.329,43.982 62.556,42.743 C64.784,41.503 67.099,39.654 67.099,37.805 C67.099,35.956 64.788,35.361 64.788,35.361 C64.788,35.361 61.09,34.895 59.934,34.701 C58.778,34.507 56.203,34.375 55.74,34.375 C55.278,34.375 52.204,35.83 53,37.277 C53.726,38.597 55.873,38.366 57.127,37.97 C58.382,37.574 59.241,37.012 59.241,37.012 L63.665,36.715 C63.665,36.715 64.326,36.748 64.788,37.772 C64.875,37.966 64.921,38.628 64.162,39.358 C63.291,40.197 61.529,41.126 60.377,41.539 C58.222,42.314 52.769,42.593 52.769,42.593" id="Fill-27" fill="#FFFFFF"></path>
        </g>
    </g>
</svg>