<?xml version="1.0" encoding="UTF-8" standalone="no"?>
<svg width="116px" height="118px" viewBox="0 0 116 118" version="1.1" xmlns="http://www.w3.org/2000/svg" xmlns:xlink="http://www.w3.org/1999/xlink">
    <!-- Generator: Sketch 3.6 (26304) - http://www.bohemiancoding.com/sketch -->
    <title>Diabetes Copy</title>
    <desc>Created with Sketch.</desc>
    <defs></defs>
    <g id="Page-1" stroke="none" stroke-width="1" fill="none" fill-rule="evenodd">
        <g id="Diabetes-Copy">
            <path d="M115.871,58.625 C115.871,91.003 89.932,117.251 57.935,117.251 C25.938,117.251 0,91.003 0,58.625 C0,26.248 25.938,0 57.935,0 C89.932,0 115.871,26.248 115.871,58.625" id="Fill-1" fill="#EEEEEE"></path>
            <path d="M34.847,79.783 C35.956,96.023 47.698,103.522 60.191,103.513 C84.294,102.943 84.062,83.87 84.294,79.762 C84.488,76.344 84.467,72.38 84.294,72.097 C84.294,72.097 82.008,73.6 79.46,73.73 C77.494,73.831 74.496,72.228 74.496,72.228 C74.496,72.228 73.516,79.805 67.572,80.424 C61.465,81.061 59.538,77.454 59.538,77.454 C59.538,77.454 57.986,79.615 54.965,80.328 C51.681,81.102 46.85,80.268 45.341,75.799 C42.445,67.22 49.456,64.629 50.741,64.215 C52.026,63.802 60.321,63.802 60.321,63.802 C60.321,63.802 63.783,63.802 66.505,61.428 C69.773,58.579 70.773,53.569 70.773,53.569 C70.773,53.569 49.478,53.803 46.343,53.938 C44.054,54.036 42.554,54.025 39.07,56.29 C35.587,58.554 34.541,63.475 34.541,65.783 C34.541,68.091 34.745,76.453 34.847,79.783 L34.847,79.783 Z M61.018,50.716 L70.773,50.498 L70.773,47.45 C70.773,45.142 70.774,41.005 65.896,40.83 C61.018,40.918 61.018,44.575 61.018,46.23 L61.018,50.716 L61.018,50.716 Z M47.562,50.716 L57.491,50.716 L57.491,45.054 C57.491,43.661 55.793,40.832 52.526,40.83 C49.522,40.83 47.562,43.225 47.562,44.837 L47.562,50.716 L47.562,50.716 Z M34.106,56.29 C34.106,56.29 37.639,52.967 40.127,52.02 C42.641,51.064 43.905,50.716 43.905,50.716 C43.905,50.716 43.948,21.103 43.948,19.361 C43.948,17.62 43.298,14.481 39.072,14.479 C34.846,14.478 34.106,18.316 34.106,19.884 L34.106,56.29 L34.106,56.29 Z M79.069,47.145 C75.084,47.471 74.3,49.823 74.3,51.325 L74.3,66.023 C74.3,67.394 75.149,70.138 79.591,70.138 C84.033,70.138 84.294,65.304 84.294,64.194 L84.294,52.305 C84.294,50.737 83.053,47.119 79.069,47.145 L79.069,47.145 Z M61.497,73.404 C61.889,74.581 62.228,77.511 66.527,77.189 C70.838,76.866 70.874,73.743 71.099,72.489 C71.325,71.236 70.838,61.777 70.838,61.777 C70.838,61.777 67.428,64.985 65.547,66.023 C63.666,67.06 61.236,67.264 61.236,67.264 C61.236,67.264 61.105,72.226 61.497,73.404 L61.497,73.404 Z M57.513,67.264 L52.679,67.264 C51.568,67.264 45.951,69.289 48.825,74.906 C50.199,77.592 53.446,77.568 55.202,76.564 C56.957,75.559 57.186,74.604 57.513,73.404 C57.839,72.204 57.513,67.264 57.513,67.264 L57.513,67.264 Z M80.702,43.944 C86.385,44.989 87.56,48.982 87.626,51.137 C87.691,53.293 87.626,70.905 87.626,80.284 C87.626,89.664 82.278,107.008 59.451,106.543 C36.623,106.079 31.855,87.441 31.485,83.26 C31.115,79.079 31,22.63 31,20.279 C31,17.927 31.929,11 38.983,11 C46.038,11 47.354,16.586 47.375,18.937 C47.397,21.289 47.453,38.98 47.453,38.98 C47.453,38.98 49.522,37.39 52.875,37.412 C56.228,37.434 59.418,40.525 59.418,40.525 C59.418,40.525 61.736,37.673 66.744,37.782 C73.013,37.918 74.17,45.316 74.17,45.316 C74.17,45.316 77.109,42.964 80.702,43.944 L80.702,43.944 Z" id="Fill-3" fill="#CCCCCC"></path>
            <path d="M40.3642855,21.098 C40.4432855,21.023 40.4832855,20.927 40.4832855,20.81 C40.4832855,20.69 40.4432855,20.593 40.3622855,20.519 C40.2812855,20.445 40.1582855,20.408 39.9942855,20.408 L38.9442855,20.408 C38.7802855,20.408 38.6572855,20.445 38.5772855,20.519 C38.4962855,20.593 38.4552855,20.69 38.4552855,20.81 C38.4552855,20.927 38.4972855,21.023 38.5802855,21.098 C38.6632855,21.172 38.7842855,21.209 38.9442855,21.209 L39.9942855,21.209 C40.1612855,21.209 40.2842855,21.172 40.3642855,21.098 L40.3642855,21.098 Z M39.7712855,24.61 L40.7452855,24.61 L40.7452855,23.948 L39.7712855,23.948 L39.7712855,22.979 L39.1192855,22.979 L39.1192855,23.948 L38.1502855,23.948 L38.1502855,24.61 L39.1192855,24.61 L39.1192855,25.574 L39.7712855,25.574 L39.7712855,24.61 L39.7712855,24.61 Z M39.3912855,30.538 L36.2332855,22.346 C36.2332855,22.346 34.7222855,18 39.3912855,18 C44.0592855,18 42.6862855,22.346 42.6862855,22.346 L39.3912855,30.538 L39.3912855,30.538 Z" id="Fill-4" fill="#CCCCCC"></path>
        </g>
    </g>
</svg>