<?xml version="1.0" encoding="UTF-8" standalone="no"?>
<svg width="117px" height="118px" viewBox="0 0 117 118" version="1.1" xmlns="http://www.w3.org/2000/svg" xmlns:xlink="http://www.w3.org/1999/xlink">
    <defs></defs>
    <g id="Page-1" stroke="none" stroke-width="1" fill="none" fill-rule="evenodd">
        <g id="Diabetes">
            <path d="M116.871,58.625 C116.871,91.003 90.932,117.251 58.935,117.251 C26.938,117.251 1,91.003 1,58.625 C1,26.248 26.938,0 58.935,0 C90.932,0 116.871,26.248 116.871,58.625" id="Fill-1" fill="#EB9185"></path>
            <path d="M3.154,41.708 C2.563,43.373 0,51.303 0,59.336 C0,87.605 19.039,108.797 45.074,115.08 L81.679,98.253 L86.682,81.391 L88.592,48.976 L75.335,44.617 L69.289,39.311 L60.492,41.368 L48.618,38.281 L47.861,15 L3.154,41.708" id="Fill-2" fill="#DA8377"></path>
            <path d="M35.847,79.783 C36.956,96.023 48.698,103.522 61.191,103.513 C85.294,102.943 85.062,83.87 85.294,79.762 C85.488,76.344 85.467,72.38 85.294,72.097 C85.294,72.097 83.008,73.6 80.46,73.73 C78.494,73.831 75.496,72.228 75.496,72.228 C75.496,72.228 74.516,79.805 68.572,80.424 C62.465,81.061 60.538,77.454 60.538,77.454 C60.538,77.454 58.986,79.615 55.965,80.328 C52.681,81.102 47.85,80.268 46.341,75.799 C43.445,67.22 50.456,64.629 51.741,64.215 C53.026,63.802 61.321,63.802 61.321,63.802 C61.321,63.802 64.783,63.802 67.505,61.428 C70.773,58.579 71.773,53.569 71.773,53.569 C71.773,53.569 50.478,53.803 47.343,53.938 C45.054,54.036 43.554,54.025 40.07,56.29 C36.587,58.554 35.541,63.475 35.541,65.783 C35.541,68.091 35.745,76.453 35.847,79.783 L35.847,79.783 Z M62.018,50.716 L71.773,50.498 L71.773,47.45 C71.773,45.142 71.774,41.005 66.896,40.83 C62.018,40.918 62.018,44.575 62.018,46.23 L62.018,50.716 L62.018,50.716 Z M48.562,50.716 L58.491,50.716 L58.491,45.054 C58.491,43.661 56.793,40.832 53.526,40.83 C50.522,40.83 48.562,43.225 48.562,44.837 L48.562,50.716 L48.562,50.716 Z M35.106,56.29 C35.106,56.29 38.639,52.967 41.127,52.02 C43.641,51.064 44.905,50.716 44.905,50.716 C44.905,50.716 44.948,21.103 44.948,19.361 C44.948,17.62 44.298,14.481 40.072,14.479 C35.846,14.478 35.106,18.316 35.106,19.884 L35.106,56.29 L35.106,56.29 Z M80.069,47.145 C76.084,47.471 75.3,49.823 75.3,51.325 L75.3,66.023 C75.3,67.394 76.149,70.138 80.591,70.138 C85.033,70.138 85.294,65.304 85.294,64.194 L85.294,52.305 C85.294,50.737 84.053,47.119 80.069,47.145 L80.069,47.145 Z M62.497,73.404 C62.889,74.581 63.228,77.511 67.527,77.189 C71.838,76.866 71.874,73.743 72.099,72.489 C72.325,71.236 71.838,61.777 71.838,61.777 C71.838,61.777 68.428,64.985 66.547,66.023 C64.666,67.06 62.236,67.264 62.236,67.264 C62.236,67.264 62.105,72.226 62.497,73.404 L62.497,73.404 Z M58.513,67.264 L53.679,67.264 C52.568,67.264 46.951,69.289 49.825,74.906 C51.199,77.592 54.446,77.568 56.202,76.564 C57.957,75.559 58.186,74.604 58.513,73.404 C58.839,72.204 58.513,67.264 58.513,67.264 L58.513,67.264 Z M81.702,43.944 C87.385,44.989 88.56,48.982 88.626,51.137 C88.691,53.293 88.626,70.905 88.626,80.284 C88.626,89.664 83.278,107.008 60.451,106.543 C37.623,106.079 32.855,87.441 32.485,83.26 C32.115,79.079 32,22.63 32,20.279 C32,17.927 32.929,11 39.983,11 C47.038,11 48.354,16.586 48.375,18.937 C48.397,21.289 48.453,38.98 48.453,38.98 C48.453,38.98 50.522,37.39 53.875,37.412 C57.228,37.434 60.418,40.525 60.418,40.525 C60.418,40.525 62.736,37.673 67.744,37.782 C74.013,37.918 75.17,45.316 75.17,45.316 C75.17,45.316 78.109,42.964 81.702,43.944 L81.702,43.944 Z" id="Fill-3" fill="#FFFFFF"></path>
            <path d="M41.3642855,21.098 C41.4432855,21.023 41.4832855,20.927 41.4832855,20.81 C41.4832855,20.69 41.4432855,20.593 41.3622855,20.519 C41.2812855,20.445 41.1582855,20.408 40.9942855,20.408 L39.9442855,20.408 C39.7802855,20.408 39.6572855,20.445 39.5772855,20.519 C39.4962855,20.593 39.4552855,20.69 39.4552855,20.81 C39.4552855,20.927 39.4972855,21.023 39.5802855,21.098 C39.6632855,21.172 39.7842855,21.209 39.9442855,21.209 L40.9942855,21.209 C41.1612855,21.209 41.2842855,21.172 41.3642855,21.098 L41.3642855,21.098 Z M40.7712855,24.61 L41.7452855,24.61 L41.7452855,23.948 L40.7712855,23.948 L40.7712855,22.979 L40.1192855,22.979 L40.1192855,23.948 L39.1502855,23.948 L39.1502855,24.61 L40.1192855,24.61 L40.1192855,25.574 L40.7712855,25.574 L40.7712855,24.61 L40.7712855,24.61 Z M40.3912855,30.538 L37.2332855,22.346 C37.2332855,22.346 35.7222855,18 40.3912855,18 C45.0592855,18 43.6862855,22.346 43.6862855,22.346 L40.3912855,30.538 L40.3912855,30.538 Z" id="Fill-4" fill="#AC2430"></path>
        </g>
    </g>
</svg>