<?xml version="1.0" encoding="UTF-8" standalone="no"?>
<svg width="326px" height="129px" viewBox="0 0 326 129" version="1.1" xmlns="http://www.w3.org/2000/svg" xmlns:xlink="http://www.w3.org/1999/xlink">
    <!-- Generator: Sketch 3.6 (26304) - http://www.bohemiancoding.com/sketch -->
    <title>drink_sizes</title>
    <desc>Created with Sketch.</desc>
    <defs></defs>
    <g id="Page-1" stroke="none" stroke-width="1" fill="none" fill-rule="evenodd">
        <g id="drink_sizes">
            <g id="Beer" transform="translate(10.000000, 0.000000)">
                <path d="M2.74155405,17.3988296 L6.02763031,61.6730212 L33.698902,61.9522201 L37.9519788,16.9188586 L24.2249638,16.2914455 L8.61570946,18.0262428 L2.74155405,17.3988296 Z" id="Path-5" fill="#F6A623"></path>
                <path d="M0.9,18.7 L4.6,59.7 L4.6,63 C3.9,64.1 3.8,65.5 4.3,66.7 C5,68.3 6.8,69.4 8.8,69.4 L31.1,69.4 C33.8,69.4 35.9,67.5 35.9,65.1 C35.9,64.4 35.7,63.6 35.3,63 L35.3,62.2 L35.3,62.2 L35.3,62.2 L35.3,59.7 L39,18.7 L39,18.6 L39.7,5.1 C39.8,4 39.3,2.9 38.5,2.1 C37.6,1.1 36.2,0.5 34.7,0.5 L5.2,0.5 C3.7,0.5 2.4,1.1 1.4,2.1 C0.6,2.9 0.2,4 0.2,5.1 L0.9,18.7 L0.9,18.7 L0.9,18.7 Z M31.2,66.3 L8.8,66.3 C7.9,66.3 7.4,65.9 7.2,65.5 C7.1,65.2 7.1,64.9 7.4,64.6 C7.6,64.4 7.7,64.1 7.8,63.8 L32.3,63.8 C32.3,64.1 32.5,64.4 32.7,64.6 C32.9,64.8 32.9,65 32.9,65.1 C32.9,65.6 32.3,66.3 31.2,66.3 L31.2,66.3 Z M32.3,59.5 L32.3,59.6 L32.3,60.6 L7.7,60.6 L7.7,59.6 L7.7,59.5 L4.1,19.3 C6.2,19.6 8.4,19.8 10.6,19.8 C13,19.8 15.3,19.6 17.7,19.2 L23.1,18.3 C27.4,17.6 31.8,17.6 36.1,18.3 L36.1,18.5 L32.3,59.5 L32.3,59.5 Z M3.7,4.3 C4,3.9 4.6,3.7 5.2,3.7 L34.9,3.7 C35.5,3.7 36.1,3.9 36.4,4.3 C36.5,4.4 36.7,4.7 36.7,5 L36.2,15.1 C31.7,14.4 27.1,14.4 22.5,15.2 L17.1,16.1 C12.7,16.8 8.3,16.8 3.9,16.1 L3.4,5.1 C3.4,4.7 3.5,4.5 3.7,4.3 L3.7,4.3 Z" id="Shape" fill="#000000"></path>
            </g>
            <g id="Spirits" transform="translate(98.000000, 34.000000)">
                <path d="M2.84984315,17.8801279 L13.7966337,19.0573118 L29.1023769,16.5304054 L39.7252654,17.4981902 L39.9432915,28.7845681 L2.65769788,28.7845681 L2.84984315,17.8801279 Z" id="Path-10" fill="#F8E81C"></path>
                <path d="M2.4,36 L39.6,36 C40.5,36 41.2,35.3 41.2,34.4 L41.2,17.6 L41.2,1.6 C41.2,0.7 40.5,0 39.6,0 L2.4,0 C1.5,0 0.8,0.7 0.8,1.6 L0.8,17.7 L0.8,34.5 C0.8,35.3 1.5,36 2.4,36 L2.4,36 Z M38,27.2 L4,27.2 L4,19.6 C8.8,20.5 13.8,20.5 18.7,19.7 L24.1,18.8 C28.6,18 33.4,18 38,18.9 L38,27.2 L38,27.2 Z M4,32.8 L4,30.3 L38,30.3 L38,32.8 L4,32.8 L4,32.8 Z M38,3.2 L38,15.8 C33.2,14.9 28.2,14.9 23.4,15.7 L18,16.6 C13.3,17.4 8.5,17.3 3.9,16.4 L3.9,3.2 L38,3.2 L38,3.2 Z" id="Shape" fill="#000000"></path>
            </g>
            <g id="Wine" transform="translate(188.000000, 7.000000)">
                <path d="M2.73075531,16.3125 L12.6760376,18.2653234 L27.5104368,13.7942206 L38.6493726,15.6074445 L33.5594836,26.754223 L24.9302003,33.8659508 L16.9989141,34.2235763 L8.01278958,27.39889 L2.73075531,16.3125 Z" id="Path-15" fill="#D0011B"></path>
                <path d="M19.0550661,35.8171806 C19.0550661,44.1255507 18.4229075,51.8017621 17.7907489,53.7885463 C17.0682819,56.1365639 14.5396476,56.7687225 11.1079295,57.4911894 C8.39867841,58.0330396 5.23788546,58.5748899 5.23788546,61.5550661 C5.23788546,62.3678414 5.87004405,63 6.68281938,63 L34.3171806,63 L34.3171806,63 C35.1299559,63 35.7621145,62.3678414 35.7621145,61.5550661 L35.7621145,61.3744493 C35.6718062,58.6651982 32.6013216,58.0330396 29.8920705,57.4911894 C26.4603524,56.8590308 23.9317181,56.1365639 23.2092511,53.7885463 C22.5770925,51.8017621 21.9449339,44.215859 21.9449339,35.8171806 C26.0088106,35.6365639 41,29.4955947 41,2.13215859 C41,1.31938326 40.3678414,0.68722467 39.5550661,0.68722467 L1.44493392,0.68722467 C0.63215859,0.68722467 0,1.31938326 0,2.13215859 C3.20839782e-15,29.4955947 14.9911894,35.6365639 19.0550661,35.8171806 L19.0550661,35.8171806 Z M28.4471366,60.1101322 L12.5528634,60.1101322 C15.623348,59.4779736 19.3259912,58.4845815 20.5,54.7819383 C21.6740088,58.3942731 25.376652,59.4779736 28.4471366,60.1101322 L28.4471366,60.1101322 Z M21.7643172,33.0176211 L19.2356828,33.0176211 C17.2488987,33.0176211 9.39207048,30.1277533 5.32819383,18.6585903 C7.40528634,19.3810573 9.57268722,19.7422907 11.7400881,19.7422907 C13.9977974,19.7422907 16.345815,19.2907489 18.5132159,18.4779736 L23.4801762,16.6718062 C27.7246696,15.1365639 31.969163,15.2268722 36.123348,17.123348 C32.3303965,29.8568282 23.8414097,33.0176211 21.7643172,33.0176211 L21.7643172,33.0176211 Z M38.2004405,3.57709251 C38.1101322,7.64096916 37.6585903,11.1629956 36.9361233,14.2334802 C32.2400881,12.246696 27.2731278,12.1563877 22.4867841,13.9625551 L17.5198238,15.7687225 C13.0947137,17.3942731 8.66960352,17.2136564 4.24449339,15.0462555 C3.43171806,11.7951542 2.88986784,8.00220264 2.79955947,3.57709251 L38.2004405,3.57709251 L38.2004405,3.57709251 Z" id="Shape" fill="#000000"></path>
            </g>
            <g id="Wine" transform="translate(277.000000, 25.000000)">
                <path d="M1.6650947,11.6517857 L7.72929125,13.0466595 L16.7746566,9.85301469 L23.5666906,11.1481746 L20.4630998,19.1101593 L15.2013416,24.1899648 L10.3651915,24.4454116 L4.8858473,19.5706357 L1.6650947,11.6517857 Z" id="Path-15" fill="#890514"></path>
                <path d="M11.6189427,25.5837004 C11.6189427,31.5182505 11.2334802,37.0012587 10.8480176,38.4203902 C10.407489,40.0975456 8.86563877,40.5490875 6.77312775,41.0651353 C5.12114537,41.4521712 3.1938326,41.839207 3.1938326,43.9679043 C3.1938326,44.5484581 3.57929515,45 4.07488987,45 L20.9251101,45 L20.9251101,45 C21.4207048,45 21.8061674,44.5484581 21.8061674,43.9679043 L21.8061674,43.8388924 C21.7511013,41.903713 19.8788546,41.4521712 18.2268722,41.0651353 C16.1343612,40.6135935 14.592511,40.0975456 14.1519824,38.4203902 C13.7665198,37.0012587 13.3810573,31.5827565 13.3810573,25.5837004 C15.8590308,25.4546885 25,21.0682819 25,1.52297042 C25,0.942416614 24.6145374,0.490874764 24.1189427,0.490874764 L0.881057269,0.490874764 C0.385462555,0.490874764 0,0.942416614 0,1.52297042 C1.95634013e-15,21.0682819 9.14096916,25.4546885 11.6189427,25.5837004 L11.6189427,25.5837004 Z M17.345815,42.9358087 L7.65418502,42.9358087 C9.52643172,42.4842668 11.784141,41.7747011 12.5,39.1299559 C13.215859,41.7101951 15.4735683,42.4842668 17.345815,42.9358087 L17.345815,42.9358087 Z M13.2709251,23.5840151 L11.7290749,23.5840151 C10.5176211,23.5840151 5.72687225,21.5198238 3.24889868,13.3275645 C4.5154185,13.8436123 5.83700441,14.1016362 7.15859031,14.1016362 C8.53524229,14.1016362 9.96696035,13.7791064 11.2885463,13.1985525 L14.3171806,11.908433 C16.9052863,10.8118313 19.4933921,10.8763373 22.0264317,12.2309629 C19.7136564,21.3263059 14.5374449,23.5840151 13.2709251,23.5840151 L13.2709251,23.5840151 Z M23.2929515,2.55506608 C23.2378855,5.45783512 22.9625551,7.97356828 22.5220264,10.1667716 C19.6585903,8.74764003 16.6299559,8.68313405 13.7114537,9.97325362 L10.6828194,11.2633732 C7.9845815,12.4244808 5.28634361,12.2954688 2.58810573,10.7473254 C2.09251101,8.42511013 1.76211454,5.71585903 1.70704846,2.55506608 L23.2929515,2.55506608 L23.2929515,2.55506608 Z" id="Shape" fill="#000000"></path>
            </g>
            <text id="A-full-strength" font-family="OpenSans, Open Sans" font-size="9" font-weight="normal" fill="#000000">
                <tspan x="0.0764160156" y="100">A full strength</tspan>
                <tspan x="2.98120117" y="113">beer (285ml)</tspan>
            </text>
            <text id="A-nip-(30ml)" font-family="OpenSans, Open Sans" font-size="9" font-weight="normal" fill="#000000">
                <tspan x="94.0236816" y="100">A nip (30ml)</tspan>
                <tspan x="100.835205" y="113">of spirits</tspan>
            </text>
            <text id="=" font-family="OpenSans-Semibold, Open Sans" font-size="24" font-weight="500" fill="#000000">
                <tspan x="66.1503906" y="51">=</tspan>
            </text>
            <text id="=-copy" font-family="OpenSans-Semibold, Open Sans" font-size="24" font-weight="500" fill="#000000">
                <tspan x="161.150391" y="51">=</tspan>
            </text>
            <text id="=-copy-2" font-family="OpenSans-Semibold, Open Sans" font-size="24" font-weight="500" fill="#000000">
                <tspan x="245.150391" y="51">=</tspan>
            </text>
            <text id="A-wine-glass" font-family="OpenSans, Open Sans" font-size="9" font-weight="normal" fill="#000000">
                <tspan x="182.989746" y="100">A wine glass</tspan>
                <tspan x="176.288086" y="113">(100ml) of wine</tspan>
            </text>
            <text id="A-small-(60ml)-of-fo" font-family="OpenSans, Open Sans" font-size="9" font-weight="normal" fill="#000000">
                <tspan x="255.157959" y="100">A small (60ml) of</tspan>
                <tspan x="261.488281" y="113">fortified Wine</tspan>
                <tspan x="259.501953" y="126">such as Sherry</tspan>
            </text>
        </g>
    </g>
</svg>