<?xml version="1.0" encoding="UTF-8" standalone="no"?>
<svg width="117px" height="118px" viewBox="0 0 117 118" version="1.1" xmlns="http://www.w3.org/2000/svg" xmlns:xlink="http://www.w3.org/1999/xlink">
    <defs></defs>
    <g id="Page-1" stroke="none" stroke-width="1" fill="none" fill-rule="evenodd">
        <g id="Alcohol">
            <path d="M116.043,58.898 C116.043,91.193 90.17,117.373 58.255,117.373 C26.341,117.373 0.468,91.193 0.468,58.898 C0.468,26.603 26.341,0.423 58.255,0.423 C90.17,0.423 116.043,26.603 116.043,58.898" id="Fill-78" fill="#FBD57E"></path>
            <path d="M0.468,57.534 C-0.176,86.428 18.648,109.618 44.073,115.754 L60.776,100.89 L63.704,58.898 L47.552,58.426 L39.952,49.556 C39.952,49.556 38.216,50.062 6.761,56.649 C1.773,57.694 0.468,57.534 0.468,57.534" id="Fill-79" fill="#E3C170"></path>
            <path d="M60.695,58.413 C88.322,59.219 86.791,23.224 86.791,23.224 L34.411,23.224 C34.411,23.224 33.068,57.607 60.695,58.413 L60.695,58.413 Z M31.456,21.344 L90.014,21.344 C90.014,21.344 92.05,41.989 82.627,53.175 C77.002,59.852 64.413,62.665 63.824,62.559 L62.883,97.976 C62.883,97.976 62.804,101.74 65.57,102.197 C68.336,102.654 78.975,104.663 81.821,104.883 C84.44,105.085 84.373,107.166 81.956,107.166 L38.843,107.166 C37.164,107.166 35.279,105.44 38.843,104.749 C42.407,104.058 52.814,102.341 55.967,101.66 C58.452,101.122 57.982,97.63 57.982,97.63 L57.025,62.207 C57.025,62.207 48.513,60.159 41.395,54.383 C29.616,44.827 31.456,21.344 31.456,21.344 L31.456,21.344 Z" id="Fill-80" fill="#FFFFFF"></path>
            <path d="M38.037,32.894 L82.56,32.894 C82.56,32.894 80.156,56.129 60.776,55.256 C41.395,54.383 38.037,32.894 38.037,32.894" id="Fill-81" fill="#AC2430"></path>
        </g>
    </g>
</svg>