<?xml version="1.0" encoding="UTF-8" standalone="no"?>
<svg width="111px" height="113px" viewBox="0 0 111 113" version="1.1" xmlns="http://www.w3.org/2000/svg" xmlns:xlink="http://www.w3.org/1999/xlink">
    <!-- Generator: Sketch 3.6.1 (26313) - http://www.bohemiancoding.com/sketch -->
    <title>Group</title>
    <desc>Created with Sketch.</desc>
    <defs>
        <path id="path-1" d="M112.661,56.256 C112.661,87.313 87.484,112.49 56.427,112.49 C25.369,112.49 0.192,87.313 0.192,56.256 C0.192,25.198 25.369,0.021 56.427,0.021 C87.484,0.021 112.661,25.198 112.661,56.256"></path>
    </defs>
    <g id="Page-1" stroke="none" stroke-width="1" fill="none" fill-rule="evenodd">
        <g id="Group">
            <mask id="mask-2" fill="white">
                <use xlink:href="#path-1"></use>
            </mask>
            <g id="Clip-33"></g>
            <path d="M110.767,56.256 C110.767,87.276 85.916,112.423 55.261,112.423 C24.606,112.423 -0.245,87.276 -0.245,56.256 C-0.245,25.236 24.606,0.089 55.261,0.089 C85.916,0.089 110.767,25.236 110.767,56.256" id="Fill-32" fill="#9FD5DD" mask="url(#mask-2)"></path>
            <path d="M1.472,42.34 C0.918,43.902 -0.467,48.17 -0.467,55.705 C-0.467,82.222 17.46,104.886 41.882,110.78 L70.977,101.122 L69.83,50.848 L56.24,27.165 L1.472,42.34" id="Fill-34" fill="#90BFC5" mask="url(#mask-2)"></path>
            <path d="M67.745,15.344 C67.745,21.318 62.902,26.162 56.927,26.162 C50.953,26.162 46.109,21.318 46.109,15.344 C46.109,9.369 50.953,4.525 56.927,4.525 C62.902,4.525 67.745,9.369 67.745,15.344" id="Fill-35" fill="#FFFFFF" mask="url(#mask-2)"></path>
            <path d="M56.359,69.901 C51.059,69.682 45.666,67.393 44.37,66.92 L42.986,126.83 C42.986,126.83 44.605,130.286 50.327,130.286 C56.509,130.286 56.693,126.83 56.693,126.83 L56.423,80.859 C56.423,80.859 56.09,78.277 57.507,78.149 C58.923,78.02 58.605,80.853 58.605,80.853 L58.086,126.83 C58.086,126.83 59.197,130.271 64.493,130.286 C70.933,130.305 71.577,126.701 71.577,126.701 L70.192,66.642 C68.1,67.386 61.389,70.108 56.359,69.901" id="Fill-36" fill="#FFFFFF" mask="url(#mask-2)"></path>
            <path d="M79.948,44.02 C79.819,38.643 78.274,27.149 57.41,27.149 C36.547,27.149 34.615,41.058 34.615,44.149 L34.615,73.641 C34.615,73.641 34.559,77.675 38.575,77.955 C44.106,78.342 43.308,72.063 43.308,72.063 L43.102,48.786 C43.102,48.786 42.791,46.016 43.92,46.016 C45.047,46.016 44.789,48.785 44.789,48.785 L44.558,61.395 C46.008,62.018 51.318,64.073 56.359,64.28 C61.182,64.479 67.892,62.159 70.085,61.395 L69.802,49.748 C69.802,49.748 69.298,46.09 70.579,45.952 C71.77,45.823 71.489,49.236 71.489,49.236 L71.459,72.479 C71.459,72.479 71.014,77.649 75.15,78.02 C80.386,78.489 80.399,73.19 80.399,73.19 C80.399,73.19 80.077,49.397 79.948,44.02" id="Fill-37" fill="#FFFFFF" mask="url(#mask-2)"></path>
            <path d="M45.978,65.062 L45.81,65.062 C45.791,65.062 45.776,65.047 45.776,65.028 L45.776,61.751 C45.776,61.732 45.791,61.716 45.81,61.716 L45.978,61.716 C45.997,61.716 46.012,61.732 46.012,61.751 L46.012,65.028 C46.012,65.047 45.997,65.062 45.978,65.062" id="Fill-38" fill="#FFFFFF" mask="url(#mask-2)"></path>
            <path d="M46.645,62.13 L46.756,62.13 L46.756,63.934 L46.645,63.934 L46.645,62.13 Z" id="Fill-39" fill="#FFFFFF" mask="url(#mask-2)"></path>
            <path d="M45.144,61.48 L45.263,61.48 L45.263,63.366 L45.144,63.366 L45.144,61.48 Z" id="Fill-40" fill="#FFFFFF" mask="url(#mask-2)"></path>
            <path d="M48.169,64.494 L48.084,64.494 C48.075,64.494 48.067,64.487 48.067,64.477 L48.067,62.622 C48.067,62.612 48.075,62.605 48.084,62.605 L48.169,62.605 C48.178,62.605 48.186,62.612 48.186,62.622 L48.186,64.477 C48.186,64.487 48.178,64.494 48.169,64.494" id="Fill-41" fill="#FFFFFF" mask="url(#mask-2)"></path>
            <path d="M48.867,64.599 L48.782,64.599 C48.773,64.599 48.765,64.592 48.765,64.582 L48.765,62.815 C48.765,62.805 48.773,62.798 48.782,62.798 L48.867,62.798 C48.876,62.798 48.884,62.805 48.884,62.815 L48.884,64.582 C48.884,64.592 48.876,64.599 48.867,64.599" id="Fill-42" fill="#FFFFFF" mask="url(#mask-2)"></path>
            <path d="M49.837,66.154 L49.669,66.154 C49.65,66.154 49.635,66.138 49.635,66.119 L49.635,63.025 C49.635,63.006 49.65,62.991 49.669,62.991 L49.837,62.991 C49.856,62.991 49.871,63.006 49.871,63.025 L49.871,66.119 C49.871,66.138 49.856,66.154 49.837,66.154" id="Fill-43" fill="#FFFFFF" mask="url(#mask-2)"></path>
            <path d="M45.32,66.096 L45.564,66.126 C45.589,66.129 45.606,66.137 45.618,66.151 C45.63,66.164 45.635,66.181 45.633,66.201 C45.632,66.219 45.625,66.234 45.614,66.246 C45.603,66.257 45.587,66.261 45.566,66.259 L45.221,66.216 C45.198,66.213 45.18,66.203 45.169,66.186 C45.157,66.169 45.152,66.15 45.154,66.13 C45.155,66.116 45.161,66.099 45.171,66.078 C45.181,66.057 45.192,66.041 45.203,66.03 C45.249,65.984 45.291,65.945 45.327,65.913 C45.364,65.881 45.39,65.86 45.405,65.85 C45.433,65.832 45.456,65.813 45.475,65.793 C45.494,65.774 45.509,65.753 45.52,65.732 C45.531,65.71 45.537,65.688 45.539,65.667 C45.541,65.643 45.538,65.621 45.53,65.601 C45.522,65.581 45.51,65.565 45.495,65.553 C45.48,65.541 45.462,65.533 45.443,65.531 C45.402,65.526 45.368,65.543 45.341,65.583 C45.337,65.588 45.331,65.602 45.321,65.626 C45.312,65.65 45.302,65.668 45.291,65.68 C45.281,65.692 45.267,65.697 45.249,65.695 C45.233,65.693 45.221,65.685 45.212,65.672 C45.202,65.658 45.199,65.641 45.201,65.62 C45.203,65.595 45.21,65.569 45.222,65.542 C45.234,65.516 45.251,65.492 45.272,65.472 C45.293,65.452 45.319,65.437 45.35,65.427 C45.381,65.416 45.416,65.414 45.456,65.419 C45.503,65.425 45.543,65.439 45.576,65.461 C45.596,65.475 45.614,65.494 45.629,65.516 C45.644,65.539 45.654,65.565 45.661,65.593 C45.668,65.621 45.67,65.65 45.668,65.679 C45.664,65.725 45.65,65.765 45.628,65.801 C45.605,65.836 45.583,65.862 45.561,65.881 C45.539,65.9 45.503,65.929 45.452,65.969 C45.401,66.008 45.365,66.04 45.346,66.063 C45.337,66.072 45.329,66.083 45.32,66.096" id="Fill-44" fill="#D9222A" mask="url(#mask-2)"></path>
            <path d="M45.825,65.99 L46.026,66.015 L46.055,65.693 L45.825,65.99 L45.825,65.99 Z M46.006,66.242 L46.015,66.139 L45.78,66.11 C45.751,66.106 45.729,66.095 45.716,66.078 C45.702,66.06 45.696,66.037 45.699,66.01 C45.7,66.003 45.701,65.996 45.704,65.989 C45.707,65.982 45.711,65.975 45.716,65.968 C45.721,65.96 45.726,65.953 45.732,65.946 C45.737,65.939 45.743,65.931 45.751,65.921 L46.034,65.559 C46.053,65.535 46.068,65.518 46.079,65.508 C46.091,65.498 46.104,65.493 46.118,65.495 C46.166,65.501 46.187,65.536 46.181,65.6 L46.143,66.029 L46.163,66.032 C46.188,66.035 46.207,66.041 46.22,66.05 C46.234,66.06 46.24,66.078 46.238,66.104 C46.236,66.125 46.229,66.14 46.216,66.149 C46.203,66.157 46.185,66.16 46.161,66.157 L46.132,66.153 L46.123,66.256 C46.121,66.285 46.114,66.305 46.102,66.318 C46.09,66.33 46.075,66.336 46.057,66.333 C46.04,66.331 46.026,66.322 46.017,66.307 C46.007,66.291 46.004,66.269 46.006,66.242 L46.006,66.242 Z" id="Fill-45" fill="#D9222A" mask="url(#mask-2)"></path>
            <path d="M50.654,65.167 L50.569,65.167 C50.56,65.167 50.552,65.16 50.552,65.15 L50.552,63.326 C50.552,63.317 50.56,63.309 50.569,63.309 L50.654,63.309 C50.663,63.309 50.671,63.317 50.671,63.326 L50.671,65.15 C50.671,65.16 50.663,65.167 50.654,65.167" id="Fill-46" fill="#FFFFFF" mask="url(#mask-2)"></path>
            <path d="M51.464,65.445 L51.379,65.445 C51.37,65.445 51.362,65.437 51.362,65.428 L51.362,63.481 C51.362,63.472 51.37,63.464 51.379,63.464 L51.464,63.464 C51.473,63.464 51.481,63.472 51.481,63.481 L51.481,65.428 C51.481,65.437 51.473,65.445 51.464,65.445" id="Fill-47" fill="#FFFFFF" mask="url(#mask-2)"></path>
            <path d="M52.285,65.63 L52.2,65.63 C52.191,65.63 52.183,65.623 52.183,65.613 L52.183,63.699 C52.183,63.69 52.191,63.682 52.2,63.682 L52.285,63.682 C52.294,63.682 52.302,63.69 52.302,63.699 L52.302,65.613 C52.302,65.623 52.294,65.63 52.285,65.63" id="Fill-48" fill="#FFFFFF" mask="url(#mask-2)"></path>
            <path d="M53.251,65.79 L53.166,65.79 C53.157,65.79 53.149,65.783 53.149,65.773 L53.149,63.862 C53.149,63.853 53.157,63.845 53.166,63.845 L53.251,63.845 C53.26,63.845 53.268,63.853 53.268,63.862 L53.268,65.773 C53.268,65.783 53.26,65.79 53.251,65.79" id="Fill-49" fill="#FFFFFF" mask="url(#mask-2)"></path>
            <path d="M54.329,66.945 L54.16,66.945 C54.141,66.945 54.126,66.93 54.126,66.911 L54.126,63.968 C54.126,63.949 54.141,63.934 54.16,63.934 L54.329,63.934 C54.348,63.934 54.363,63.949 54.363,63.968 L54.363,66.911 C54.363,66.93 54.348,66.945 54.329,66.945" id="Fill-50" fill="#FFFFFF" mask="url(#mask-2)"></path>
            <path d="M55.327,66.036 L55.243,66.036 C55.234,66.036 55.226,66.028 55.226,66.019 L55.226,64.049 C55.226,64.039 55.234,64.032 55.243,64.032 L55.327,64.032 C55.337,64.032 55.344,64.039 55.344,64.049 L55.344,66.019 C55.344,66.028 55.337,66.036 55.327,66.036" id="Fill-51" fill="#FFFFFF" mask="url(#mask-2)"></path>
            <path d="M56.342,66.11 L56.257,66.11 C56.248,66.11 56.24,66.102 56.24,66.092 L56.24,64.168 C56.24,64.158 56.248,64.151 56.257,64.151 L56.342,64.151 C56.351,64.151 56.359,64.158 56.359,64.168 L56.359,66.092 C56.359,66.102 56.351,66.11 56.342,66.11" id="Fill-52" fill="#FFFFFF" mask="url(#mask-2)"></path>
            <path d="M57.323,66.097 L57.239,66.097 C57.23,66.097 57.222,66.089 57.222,66.079 L57.222,64.168 C57.222,64.158 57.23,64.151 57.239,64.151 L57.323,64.151 C57.333,64.151 57.34,64.158 57.34,64.168 L57.34,66.079 C57.34,66.089 57.333,66.097 57.323,66.097" id="Fill-53" fill="#FFFFFF" mask="url(#mask-2)"></path>
            <path d="M58.37,66.036 L58.286,66.036 C58.276,66.036 58.269,66.028 58.269,66.019 L58.269,64.168 C58.269,64.159 58.276,64.151 58.286,64.151 L58.37,64.151 C58.379,64.151 58.387,64.159 58.387,64.168 L58.387,66.019 C58.387,66.028 58.379,66.036 58.37,66.036" id="Fill-54" fill="#FFFFFF" mask="url(#mask-2)"></path>
            <path d="M59.598,67.308 L59.429,67.308 C59.41,67.308 59.395,67.293 59.395,67.274 L59.395,63.968 C59.395,63.949 59.41,63.934 59.429,63.934 L59.598,63.934 C59.616,63.934 59.632,63.949 59.632,63.968 L59.632,67.274 C59.632,67.293 59.616,67.308 59.598,67.308" id="Fill-55" fill="#FFFFFF" mask="url(#mask-2)"></path>
            <path d="M60.736,65.842 L60.652,65.842 C60.643,65.842 60.635,65.835 60.635,65.825 L60.635,63.862 C60.635,63.853 60.643,63.845 60.652,63.845 L60.736,63.845 C60.746,63.845 60.753,63.853 60.753,63.862 L60.753,65.825 C60.753,65.835 60.746,65.842 60.736,65.842" id="Fill-56" fill="#FFFFFF" mask="url(#mask-2)"></path>
            <path d="M61.849,65.63 L61.764,65.63 C61.755,65.63 61.747,65.622 61.747,65.613 L61.747,63.699 C61.747,63.69 61.755,63.682 61.764,63.682 L61.849,63.682 C61.859,63.682 61.867,63.69 61.867,63.699 L61.867,65.613 C61.867,65.622 61.859,65.63 61.849,65.63" id="Fill-57" fill="#FFFFFF" mask="url(#mask-2)"></path>
            <path d="M62.947,65.417 L62.863,65.417 C62.853,65.417 62.846,65.409 62.846,65.4 L62.846,63.327 C62.846,63.318 62.853,63.31 62.863,63.31 L62.947,63.31 C62.956,63.31 62.964,63.318 62.964,63.327 L62.964,65.4 C62.964,65.409 62.956,65.417 62.947,65.417" id="Fill-58" fill="#FFFFFF" mask="url(#mask-2)"></path>
            <path d="M64.031,65.167 L63.947,65.167 C63.938,65.167 63.93,65.16 63.93,65.15 L63.93,63.19 C63.93,63.18 63.938,63.172 63.947,63.172 L64.031,63.172 C64.041,63.172 64.048,63.18 64.048,63.19 L64.048,65.15 C64.048,65.16 64.041,65.167 64.031,65.167" id="Fill-59" fill="#FFFFFF" mask="url(#mask-2)"></path>
            <path d="M65.243,66.154 L65.075,66.154 C65.056,66.154 65.041,66.138 65.041,66.119 L65.041,62.832 C65.041,62.813 65.056,62.798 65.075,62.798 L65.243,62.798 C65.262,62.798 65.278,62.813 65.278,62.832 L65.278,66.119 C65.278,66.138 65.262,66.154 65.243,66.154" id="Fill-60" fill="#FFFFFF" mask="url(#mask-2)"></path>
            <path d="M66.156,64.599 L66.072,64.599 C66.063,64.599 66.055,64.591 66.055,64.582 L66.055,62.515 C66.055,62.505 66.063,62.498 66.072,62.498 L66.156,62.498 C66.166,62.498 66.173,62.505 66.173,62.515 L66.173,64.582 C66.173,64.591 66.166,64.599 66.156,64.599" id="Fill-61" fill="#FFFFFF" mask="url(#mask-2)"></path>
            <path d="M67.197,64.308 L67.113,64.308 C67.103,64.308 67.096,64.3 67.096,64.291 L67.096,62.146 C67.096,62.137 67.103,62.129 67.113,62.129 L67.197,62.129 C67.206,62.129 67.214,62.137 67.214,62.146 L67.214,64.291 C67.214,64.3 67.206,64.308 67.197,64.308" id="Fill-62" fill="#FFFFFF" mask="url(#mask-2)"></path>
            <path d="M68.185,63.933 L68.1,63.933 C68.091,63.933 68.083,63.925 68.083,63.916 L68.083,61.636 C68.083,61.627 68.091,61.619 68.1,61.619 L68.185,61.619 C68.194,61.619 68.202,61.627 68.202,61.636 L68.202,63.916 C68.202,63.925 68.194,63.933 68.185,63.933" id="Fill-63" fill="#FFFFFF" mask="url(#mask-2)"></path>
            <path d="M69.177,63.741 L69.093,63.741 C69.083,63.741 69.076,63.733 69.076,63.724 L69.076,61.497 C69.076,61.488 69.083,61.48 69.093,61.48 L69.177,61.48 C69.187,61.48 69.194,61.488 69.194,61.497 L69.194,63.724 C69.194,63.733 69.187,63.741 69.177,63.741" id="Fill-64" fill="#FFFFFF" mask="url(#mask-2)"></path>
            <path d="M44.685,63.097 L44.592,63.097 C44.582,63.097 44.574,63.089 44.574,63.079 L44.574,61.18 C44.574,61.17 44.582,61.162 44.592,61.162 L44.685,61.162 C44.695,61.162 44.703,61.17 44.703,61.18 L44.703,63.079 C44.703,63.089 44.695,63.097 44.685,63.097" id="Fill-65" fill="#FFFFFF" mask="url(#mask-2)"></path>
            <path d="M49.328,67.158 L49.608,67.178 C49.636,67.18 49.656,67.187 49.67,67.2 C49.684,67.213 49.69,67.229 49.689,67.249 C49.687,67.267 49.68,67.282 49.668,67.293 C49.656,67.305 49.637,67.31 49.614,67.308 L49.22,67.28 C49.193,67.278 49.173,67.269 49.159,67.253 C49.145,67.236 49.139,67.218 49.14,67.198 C49.141,67.185 49.147,67.167 49.158,67.147 C49.17,67.125 49.181,67.109 49.194,67.098 C49.245,67.051 49.291,67.011 49.332,66.978 C49.372,66.944 49.401,66.923 49.419,66.913 C49.449,66.894 49.475,66.874 49.496,66.854 C49.517,66.834 49.534,66.814 49.545,66.792 C49.557,66.77 49.564,66.749 49.565,66.727 C49.567,66.704 49.563,66.682 49.553,66.663 C49.544,66.644 49.53,66.629 49.512,66.617 C49.494,66.606 49.474,66.599 49.452,66.598 C49.405,66.594 49.367,66.612 49.337,66.652 C49.333,66.658 49.326,66.672 49.316,66.696 C49.306,66.72 49.295,66.738 49.284,66.75 C49.272,66.763 49.256,66.768 49.236,66.767 C49.218,66.765 49.204,66.758 49.193,66.745 C49.182,66.732 49.177,66.716 49.179,66.695 C49.181,66.67 49.188,66.644 49.201,66.617 C49.214,66.591 49.232,66.567 49.256,66.547 C49.279,66.526 49.309,66.51 49.343,66.499 C49.378,66.487 49.418,66.483 49.463,66.487 C49.518,66.491 49.564,66.503 49.601,66.523 C49.625,66.536 49.646,66.554 49.663,66.576 C49.681,66.598 49.694,66.622 49.702,66.65 C49.711,66.677 49.714,66.705 49.712,66.734 C49.709,66.78 49.695,66.82 49.67,66.855 C49.646,66.891 49.621,66.918 49.597,66.937 C49.573,66.957 49.532,66.987 49.475,67.028 C49.418,67.069 49.379,67.101 49.357,67.124 C49.348,67.134 49.338,67.145 49.328,67.158" id="Fill-66" fill="#D9222A" mask="url(#mask-2)"></path>
            <path d="M50.281,66.686 L50.027,66.668 L49.984,66.843 C50.036,66.819 50.084,66.808 50.127,66.811 C50.161,66.814 50.193,66.823 50.221,66.838 C50.251,66.853 50.275,66.873 50.296,66.898 C50.317,66.923 50.332,66.951 50.343,66.984 C50.354,67.017 50.358,67.051 50.355,67.088 C50.351,67.141 50.336,67.188 50.31,67.23 C50.284,67.271 50.248,67.303 50.202,67.326 C50.157,67.348 50.105,67.357 50.048,67.353 C49.984,67.348 49.933,67.333 49.895,67.306 C49.857,67.279 49.831,67.249 49.816,67.217 C49.802,67.184 49.796,67.157 49.798,67.133 C49.799,67.119 49.805,67.106 49.818,67.094 C49.83,67.082 49.845,67.077 49.863,67.078 C49.893,67.08 49.914,67.1 49.926,67.136 C49.938,67.17 49.955,67.196 49.978,67.216 C50.001,67.236 50.028,67.247 50.058,67.249 C50.085,67.251 50.11,67.245 50.132,67.232 C50.154,67.219 50.171,67.2 50.184,67.175 C50.197,67.151 50.205,67.122 50.207,67.09 C50.21,67.055 50.206,67.024 50.195,66.999 C50.185,66.973 50.17,66.953 50.151,66.94 C50.131,66.926 50.109,66.918 50.084,66.917 C50.053,66.915 50.031,66.917 50.017,66.923 C50.003,66.93 49.983,66.942 49.957,66.959 C49.931,66.977 49.91,66.985 49.894,66.984 C49.876,66.982 49.861,66.975 49.849,66.961 C49.836,66.947 49.83,66.932 49.831,66.915 C49.832,66.914 49.835,66.901 49.84,66.879 L49.904,66.62 C49.911,66.589 49.922,66.567 49.937,66.554 C49.951,66.541 49.974,66.535 50.005,66.537 L50.287,66.558 C50.343,66.562 50.369,66.585 50.366,66.629 C50.365,66.648 50.357,66.662 50.342,66.673 C50.328,66.684 50.308,66.688 50.281,66.686" id="Fill-67" fill="#D9222A" mask="url(#mask-2)"></path>
            <path d="M53.868,67.998 L54.148,67.998 C54.176,67.998 54.198,68.004 54.212,68.016 C54.227,68.028 54.234,68.044 54.234,68.064 C54.234,68.082 54.228,68.097 54.217,68.109 C54.205,68.121 54.187,68.128 54.164,68.128 L53.769,68.127 C53.742,68.127 53.721,68.119 53.706,68.104 C53.691,68.089 53.683,68.071 53.683,68.05 C53.683,68.037 53.688,68.02 53.698,67.998 C53.708,67.976 53.718,67.959 53.73,67.947 C53.778,67.897 53.821,67.854 53.859,67.818 C53.897,67.782 53.925,67.758 53.941,67.747 C53.971,67.726 53.995,67.704 54.014,67.683 C54.034,67.662 54.049,67.64 54.059,67.617 C54.07,67.595 54.075,67.573 54.075,67.551 C54.075,67.528 54.069,67.507 54.058,67.489 C54.048,67.47 54.033,67.456 54.014,67.445 C53.995,67.435 53.975,67.43 53.953,67.43 C53.906,67.43 53.869,67.451 53.842,67.493 C53.838,67.498 53.832,67.513 53.824,67.538 C53.815,67.562 53.806,67.581 53.795,67.594 C53.785,67.607 53.769,67.614 53.749,67.614 C53.731,67.614 53.716,67.608 53.704,67.596 C53.692,67.583 53.687,67.567 53.687,67.546 C53.687,67.521 53.692,67.495 53.703,67.467 C53.715,67.44 53.731,67.415 53.753,67.393 C53.775,67.371 53.803,67.353 53.837,67.339 C53.871,67.325 53.91,67.319 53.956,67.319 C54.011,67.319 54.058,67.328 54.096,67.345 C54.121,67.357 54.143,67.373 54.162,67.394 C54.181,67.414 54.196,67.438 54.206,67.465 C54.217,67.492 54.222,67.519 54.222,67.548 C54.222,67.594 54.211,67.635 54.188,67.672 C54.166,67.709 54.144,67.738 54.121,67.759 C54.098,67.78 54.06,67.813 54.006,67.858 C53.952,67.902 53.915,67.937 53.895,67.962 C53.886,67.972 53.877,67.984 53.868,67.998" id="Fill-68" fill="#D9222A" mask="url(#mask-2)"></path>
            <path d="M54.62,68.034 C54.656,68.034 54.686,68.019 54.71,67.989 C54.733,67.959 54.745,67.92 54.745,67.871 C54.745,67.837 54.74,67.809 54.729,67.785 C54.718,67.761 54.703,67.743 54.683,67.73 C54.664,67.717 54.643,67.711 54.62,67.711 C54.597,67.711 54.576,67.717 54.556,67.729 C54.536,67.741 54.519,67.758 54.507,67.781 C54.495,67.804 54.488,67.831 54.488,67.861 C54.488,67.911 54.501,67.952 54.526,67.985 C54.551,68.018 54.582,68.034 54.62,68.034 L54.62,68.034 Z M54.476,67.694 C54.5,67.664 54.527,67.642 54.555,67.628 C54.584,67.614 54.616,67.607 54.652,67.607 C54.686,67.607 54.717,67.613 54.746,67.626 C54.774,67.64 54.8,67.658 54.821,67.682 C54.843,67.706 54.859,67.734 54.871,67.767 C54.883,67.799 54.889,67.833 54.889,67.869 C54.889,67.92 54.877,67.967 54.854,68.009 C54.831,68.051 54.798,68.084 54.757,68.107 C54.715,68.131 54.669,68.142 54.617,68.142 C54.557,68.142 54.505,68.127 54.461,68.097 C54.417,68.067 54.384,68.022 54.361,67.964 C54.338,67.905 54.327,67.833 54.327,67.749 C54.327,67.68 54.334,67.618 54.348,67.563 C54.362,67.509 54.382,67.464 54.409,67.428 C54.435,67.392 54.467,67.365 54.504,67.347 C54.541,67.329 54.583,67.32 54.631,67.32 C54.677,67.32 54.717,67.329 54.752,67.348 C54.787,67.366 54.813,67.389 54.831,67.416 C54.849,67.443 54.857,67.469 54.857,67.494 C54.857,67.509 54.852,67.522 54.841,67.535 C54.829,67.547 54.815,67.553 54.798,67.553 C54.783,67.553 54.769,67.548 54.756,67.538 C54.743,67.529 54.734,67.515 54.728,67.498 C54.72,67.476 54.707,67.458 54.689,67.445 C54.671,67.432 54.65,67.425 54.627,67.425 C54.608,67.425 54.589,67.43 54.57,67.441 C54.551,67.453 54.535,67.467 54.522,67.487 C54.496,67.525 54.481,67.594 54.476,67.694 L54.476,67.694 Z" id="Fill-69" fill="#D9222A" mask="url(#mask-2)"></path>
            <path d="M59.09,68.304 L59.37,68.303 C59.398,68.303 59.419,68.309 59.434,68.32 C59.449,68.332 59.456,68.348 59.456,68.368 C59.456,68.385 59.451,68.401 59.439,68.413 C59.427,68.426 59.41,68.432 59.386,68.432 L58.991,68.434 C58.964,68.434 58.943,68.427 58.928,68.412 C58.913,68.396 58.906,68.379 58.905,68.358 C58.905,68.345 58.91,68.328 58.92,68.306 C58.929,68.284 58.94,68.267 58.951,68.254 C58.998,68.204 59.041,68.16 59.079,68.124 C59.118,68.088 59.145,68.064 59.161,68.053 C59.19,68.032 59.215,68.01 59.234,67.989 C59.253,67.967 59.268,67.945 59.278,67.923 C59.288,67.9 59.293,67.878 59.293,67.857 C59.293,67.833 59.288,67.812 59.277,67.794 C59.266,67.775 59.251,67.761 59.232,67.751 C59.213,67.741 59.193,67.736 59.17,67.736 C59.123,67.736 59.087,67.757 59.06,67.8 C59.057,67.805 59.051,67.82 59.042,67.845 C59.034,67.869 59.025,67.888 59.014,67.901 C59.004,67.914 58.988,67.921 58.968,67.921 C58.95,67.921 58.935,67.915 58.923,67.903 C58.911,67.891 58.905,67.875 58.905,67.854 C58.905,67.829 58.911,67.802 58.921,67.775 C58.933,67.748 58.949,67.723 58.971,67.7 C58.993,67.678 59.021,67.66 59.054,67.646 C59.088,67.632 59.128,67.625 59.173,67.625 C59.228,67.624 59.275,67.633 59.313,67.65 C59.338,67.662 59.36,67.678 59.379,67.698 C59.399,67.719 59.413,67.742 59.424,67.769 C59.435,67.796 59.44,67.824 59.44,67.853 C59.441,67.898 59.43,67.939 59.408,67.976 C59.386,68.013 59.364,68.043 59.341,68.064 C59.318,68.085 59.28,68.118 59.226,68.163 C59.173,68.208 59.136,68.244 59.116,68.268 C59.107,68.278 59.099,68.29 59.09,68.304" id="Fill-70" fill="#D9222A" mask="url(#mask-2)"></path>
            <path d="M59.666,67.635 L60.023,67.633 C60.058,67.633 60.082,67.638 60.098,67.649 C60.113,67.66 60.121,67.678 60.121,67.704 C60.121,67.719 60.112,67.739 60.094,67.764 C60.076,67.79 60.056,67.818 60.033,67.848 C60.01,67.879 59.987,67.917 59.962,67.962 C59.938,68.008 59.916,68.063 59.896,68.129 C59.887,68.158 59.881,68.182 59.878,68.201 C59.874,68.22 59.871,68.244 59.866,68.275 C59.862,68.305 59.859,68.328 59.855,68.344 C59.848,68.382 59.838,68.407 59.824,68.422 C59.81,68.437 59.792,68.444 59.769,68.444 C59.747,68.444 59.73,68.436 59.716,68.421 C59.703,68.405 59.696,68.383 59.696,68.352 C59.696,68.329 59.701,68.297 59.71,68.257 C59.72,68.217 59.735,68.168 59.757,68.112 C59.778,68.056 59.805,67.998 59.838,67.939 C59.87,67.88 59.909,67.821 59.953,67.762 L59.666,67.764 C59.636,67.764 59.614,67.759 59.599,67.747 C59.584,67.736 59.576,67.719 59.576,67.695 C59.576,67.67 59.584,67.654 59.6,67.646 C59.615,67.639 59.638,67.635 59.666,67.635" id="Fill-71" fill="#D9222A" mask="url(#mask-2)"></path>
            <path d="M64.764,67.174 L65.044,67.172 C65.072,67.172 65.094,67.178 65.108,67.189 C65.123,67.201 65.131,67.216 65.131,67.236 C65.131,67.254 65.125,67.27 65.114,67.282 C65.102,67.295 65.085,67.301 65.061,67.301 L64.666,67.305 C64.639,67.305 64.618,67.297 64.603,67.282 C64.588,67.267 64.58,67.25 64.58,67.229 C64.58,67.216 64.585,67.199 64.594,67.177 C64.604,67.155 64.614,67.138 64.625,67.125 C64.673,67.074 64.715,67.031 64.753,66.994 C64.791,66.958 64.818,66.934 64.835,66.923 C64.864,66.901 64.888,66.88 64.907,66.858 C64.927,66.837 64.941,66.815 64.951,66.792 C64.961,66.77 64.966,66.748 64.966,66.726 C64.966,66.703 64.96,66.682 64.949,66.663 C64.938,66.645 64.923,66.631 64.904,66.621 C64.885,66.611 64.865,66.606 64.843,66.606 C64.796,66.606 64.759,66.628 64.733,66.67 C64.729,66.675 64.723,66.69 64.715,66.715 C64.707,66.739 64.698,66.758 64.687,66.772 C64.677,66.785 64.661,66.792 64.641,66.792 C64.623,66.792 64.608,66.786 64.596,66.774 C64.584,66.762 64.578,66.746 64.578,66.725 C64.578,66.7 64.583,66.673 64.594,66.646 C64.605,66.618 64.621,66.593 64.643,66.571 C64.665,66.548 64.693,66.53 64.726,66.516 C64.76,66.502 64.799,66.495 64.845,66.495 C64.9,66.494 64.947,66.502 64.985,66.52 C65.01,66.531 65.033,66.547 65.052,66.567 C65.071,66.588 65.086,66.611 65.097,66.638 C65.107,66.665 65.113,66.692 65.113,66.721 C65.114,66.767 65.103,66.808 65.081,66.845 C65.059,66.883 65.037,66.912 65.014,66.933 C64.992,66.954 64.954,66.988 64.9,67.033 C64.847,67.078 64.81,67.114 64.79,67.139 C64.782,67.149 64.773,67.161 64.764,67.174" id="Fill-72" fill="#D9222A" mask="url(#mask-2)"></path>
            <path d="M65.491,66.593 C65.458,66.593 65.431,66.604 65.41,66.625 C65.39,66.647 65.38,66.675 65.38,66.708 C65.381,66.739 65.391,66.765 65.413,66.785 C65.434,66.806 65.461,66.816 65.494,66.816 C65.511,66.816 65.526,66.813 65.54,66.807 C65.554,66.802 65.566,66.794 65.576,66.784 C65.585,66.774 65.593,66.763 65.598,66.749 C65.603,66.736 65.606,66.721 65.605,66.705 C65.605,66.684 65.6,66.664 65.591,66.647 C65.581,66.63 65.568,66.617 65.551,66.607 C65.533,66.597 65.514,66.592 65.491,66.593 L65.491,66.593 Z M65.629,67.06 C65.629,67.031 65.623,67.006 65.612,66.985 C65.6,66.964 65.584,66.948 65.563,66.937 C65.542,66.926 65.519,66.92 65.493,66.92 C65.457,66.921 65.426,66.933 65.402,66.958 C65.377,66.984 65.365,67.018 65.366,67.063 C65.366,67.091 65.372,67.116 65.384,67.138 C65.396,67.16 65.412,67.176 65.432,67.188 C65.452,67.2 65.474,67.206 65.499,67.205 C65.524,67.205 65.546,67.199 65.566,67.187 C65.586,67.174 65.602,67.157 65.613,67.135 C65.624,67.113 65.63,67.088 65.629,67.06 L65.629,67.06 Z M65.242,66.7 C65.241,66.664 65.251,66.629 65.27,66.596 C65.289,66.564 65.318,66.538 65.355,66.518 C65.393,66.498 65.437,66.488 65.487,66.488 C65.53,66.488 65.567,66.493 65.6,66.504 C65.632,66.515 65.659,66.531 65.68,66.55 C65.702,66.57 65.718,66.592 65.729,66.617 C65.739,66.642 65.745,66.669 65.745,66.697 C65.745,66.733 65.737,66.765 65.719,66.793 C65.701,66.821 65.674,66.845 65.639,66.863 C65.669,66.875 65.695,66.89 65.715,66.909 C65.735,66.929 65.75,66.951 65.761,66.977 C65.771,67.003 65.776,67.031 65.777,67.063 C65.777,67.109 65.767,67.151 65.745,67.188 C65.724,67.226 65.692,67.255 65.65,67.277 C65.608,67.299 65.558,67.31 65.501,67.31 C65.441,67.311 65.39,67.3 65.348,67.28 C65.306,67.259 65.274,67.23 65.252,67.193 C65.23,67.156 65.219,67.115 65.219,67.069 C65.218,66.97 65.263,66.902 65.353,66.865 C65.28,66.831 65.242,66.776 65.242,66.7 L65.242,66.7 Z" id="Fill-73" fill="#D9222A" mask="url(#mask-2)"></path>
            <path d="M69.73,65.377 L70.004,65.348 C70.031,65.345 70.052,65.347 70.068,65.355 C70.083,65.364 70.092,65.376 70.093,65.393 C70.095,65.408 70.091,65.421 70.08,65.433 C70.07,65.444 70.053,65.451 70.03,65.454 L69.645,65.495 C69.618,65.498 69.597,65.494 69.581,65.483 C69.565,65.472 69.556,65.458 69.554,65.441 C69.553,65.43 69.556,65.415 69.564,65.395 C69.571,65.376 69.58,65.361 69.59,65.349 C69.632,65.302 69.67,65.262 69.704,65.228 C69.739,65.194 69.763,65.171 69.779,65.16 C69.805,65.139 69.827,65.119 69.844,65.099 C69.862,65.079 69.874,65.06 69.882,65.04 C69.89,65.02 69.893,65.001 69.891,64.983 C69.889,64.964 69.882,64.947 69.869,64.933 C69.857,64.918 69.841,64.908 69.822,64.901 C69.803,64.895 69.782,64.893 69.76,64.895 C69.715,64.9 69.681,64.922 69.658,64.959 C69.655,64.964 69.651,64.977 69.645,64.998 C69.639,65.02 69.631,65.036 69.622,65.049 C69.613,65.061 69.598,65.068 69.578,65.07 C69.561,65.072 69.546,65.068 69.533,65.059 C69.521,65.05 69.513,65.037 69.511,65.02 C69.509,64.999 69.513,64.977 69.521,64.953 C69.529,64.929 69.543,64.906 69.563,64.885 C69.582,64.864 69.608,64.846 69.64,64.831 C69.671,64.817 69.709,64.807 69.754,64.802 C69.807,64.796 69.854,64.799 69.893,64.809 C69.918,64.816 69.942,64.828 69.962,64.843 C69.982,64.858 69.999,64.876 70.011,64.897 C70.024,64.919 70.032,64.941 70.034,64.965 C70.038,65.003 70.031,65.038 70.013,65.072 C69.995,65.105 69.976,65.131 69.955,65.151 C69.935,65.171 69.9,65.203 69.852,65.246 C69.803,65.289 69.77,65.322 69.752,65.345 C69.745,65.354 69.738,65.364 69.73,65.377" id="Fill-74" fill="#D9222A" mask="url(#mask-2)"></path>
            <path d="M70.051,64.363 L69.883,64.363 C69.864,64.363 69.849,64.348 69.849,64.329 L69.849,61.305 C69.849,61.286 69.864,61.27 69.883,61.27 L70.051,61.27 C70.07,61.27 70.085,61.286 70.085,61.305 L70.085,64.329 C70.085,64.348 70.07,64.363 70.051,64.363" id="Fill-75" fill="#FFFFFF" mask="url(#mask-2)"></path>
            <path d="M47.314,62.351 L47.425,62.351 L47.425,64.268 L47.314,64.268 L47.314,62.351 Z" id="Fill-76" fill="#FFFFFF" mask="url(#mask-2)"></path>
        </g>
    </g>
</svg>