<?xml version="1.0" encoding="UTF-8" standalone="no"?>
<svg width="333px" height="122px" viewBox="0 0 333 122" version="1.1" xmlns="http://www.w3.org/2000/svg" xmlns:xlink="http://www.w3.org/1999/xlink">
    <!-- Generator: Sketch 3.6.1 (26313) - http://www.bohemiancoding.com/sketch -->
    <title>drink_sizes</title>
    <desc>Created with Sketch.</desc>
    <defs>
        <path id="path-1" d="M0,60.3905703 L59.7008927,60.3905703 L59.7008927,0 L0,0 L1.16190584e-16,60.3905703 L0,60.3905703 Z"></path>
    </defs>
    <g id="Page-1" stroke="none" stroke-width="1" fill="none" fill-rule="evenodd">
        <g id="drink_sizes">
            <text id="A-small--glass-(60ml" font-family="OpenSans, Open Sans" font-size="9" font-weight="normal" fill="#000000">
                <tspan x="284.371826" y="80">A small </tspan>
                <tspan x="274.79834" y="93">glass </tspan>
                <tspan x="297.935547" y="93">(60ml)</tspan>
                <tspan x="324.20166" y="93"></tspan>
                <tspan x="265.576416" y="106">of fortified Wine</tspan>
                <tspan x="274.585205" y="119">(e.g. Sherry)</tspan>
            </text>
            <g id="Sherry" transform="translate(271.000000, 0.000000)">
                <path d="M59.650157,30.1757967 C59.650157,46.8415975 46.2988164,60.3519616 29.8292181,60.3519616 C13.3596198,60.3519616 0.00827918559,46.8415975 0.00827918559,30.1757967 C0.00827918559,13.510364 13.3596198,0 29.8292181,0 C46.2988164,0 59.650157,13.510364 59.650157,30.1757967" id="Fill-11" fill="#FBD57E"></path>
                <path d="M0.00827918559,29.472339 C-0.324123918,44.3829925 9.38955615,56.3502405 22.510092,59.5163524 L31.1297499,51.8456815 L30.9990709,33.7398353 L23.3295043,32.1385579 L20.38389,25.3553996 C20.38389,25.3553996 19.4875428,25.6163894 3.25537529,29.0158829 C0.681551918,29.5547956 0.00827918559,29.472339 0.00827918559,29.472339" id="Fill-12" fill="#E3C170"></path>
                <path d="M30.9990709,33.7398353 C41.9779442,34.0600908 41.3694588,19.7560822 41.3694588,19.7560822 L20.5539567,19.7560822 C20.5539567,19.7560822 20.0201976,33.4195798 30.9990709,33.7398353 L30.9990709,33.7398353 Z M19.3796866,19.0091875 L42.6501126,19.0091875 C42.6501126,19.0091875 43.4592178,27.2132495 39.7148054,31.6581747 C37.479643,34.3118779 32.4762953,35.4294591 32.2425456,35.3878627 L31.8689142,49.4621708 C31.8689142,49.4621708 31.8372568,50.9578007 32.9364325,51.1392789 C34.0356082,51.3211251 38.2633487,52.119187 39.39455,52.2067971 C40.4351962,52.2866769 40.4086923,53.1141877 39.4479259,53.1141877 L22.3153619,53.1141877 C21.648347,53.1141877 20.8988756,52.4280311 22.3153619,52.1534212 C23.7318482,51.8788113 27.8671931,51.196704 29.1202387,50.9257752 C30.1078772,50.7122715 29.9208774,49.3244978 29.9208774,49.3244978 L29.5406201,35.2476129 C29.5406201,35.2476129 26.1580596,34.4337222 23.3295043,32.1385579 C18.6489888,28.3411377 19.3796866,19.0091875 19.3796866,19.0091875 L19.3796866,19.0091875 Z" id="Fill-13" fill="#FFFFFF"></path>
                <path d="M21.9951064,23.5991479 L39.6879334,23.5991479 C39.6879334,23.5991479 38.7330567,32.8324448 31.0310964,32.4856854 C23.3295043,32.1385579 21.9951064,23.5991479 21.9951064,23.5991479" id="Fill-14" fill="#AC2430"></path>
            </g>
            <text id="=-copy-2" font-family="OpenSans-Semibold, Open Sans" font-size="24" font-weight="500" fill="#000000">
                <tspan x="249.150391" y="39">=</tspan>
            </text>
            <text id="A-glass-(100ml)" font-family="OpenSans, Open Sans" font-size="9" font-weight="normal" fill="#000000">
                <tspan x="177.20874" y="80">A glass (100ml)</tspan>
                <tspan x="190.245117" y="93">of red or</tspan>
                <tspan x="185.892334" y="106">white wine</tspan>
            </text>
            <g id="Wine" transform="translate(181.000000, 0.000000)">
                <path d="M59.7555828,30.2554601 C59.7555828,46.9203681 46.4046626,60.4303067 29.9355828,60.4303067 C13.4665031,60.4303067 0.115582822,46.9203681 0.115582822,30.2554601 C0.115582822,13.590184 13.4665031,0.0802453988 29.9355828,0.0802453988 C46.4046626,0.0802453988 59.7555828,13.590184 59.7555828,30.2554601" id="Fill-7" fill="#FBD57E"></path>
                <path d="M0.115582822,29.5516564 C-0.216441718,44.4618405 9.49693252,56.4287117 22.6170552,59.595092 L31.2360736,51.9242945 L32.7471166,30.2554601 L24.412638,30.0121472 L20.4909202,25.4348466 C20.4909202,25.4348466 19.5946012,25.6961963 3.36294479,29.0952147 C0.789202454,29.6341104 0.115582822,29.5516564 0.115582822,29.5516564" id="Fill-8" fill="#E3C170"></path>
                <path d="M31.1944785,30.0051534 C45.4509202,30.4207362 44.6606135,11.8468712 44.6606135,11.8468712 L17.6311656,11.8468712 C17.6311656,11.8468712 16.9380368,29.5892025 31.1944785,30.0051534 L31.1944785,30.0051534 Z M16.1065031,10.8765644 L46.3240491,10.8765644 C46.3240491,10.8765644 47.3746012,21.5300613 42.5123926,27.3022086 C39.6095706,30.7476074 33.1130061,32.1993865 32.8093252,32.144908 L32.3238037,50.4209816 C32.3238037,50.4209816 32.2829448,52.3630675 33.7104294,52.5990184 C35.137546,52.8349693 40.6277301,53.8715337 42.0964417,53.9852761 C43.4477301,54.0890798 43.4131288,55.1635583 42.1656442,55.1635583 L19.9181595,55.1635583 C19.0520245,55.1635583 18.078773,54.2723926 19.9181595,53.9160736 C21.757546,53.5593865 27.1277301,52.6737423 28.7547239,52.3218405 C30.0371779,52.0446626 29.7946012,50.2428221 29.7946012,50.2428221 L29.3006135,31.9630675 C29.3006135,31.9630675 24.9084663,30.9058896 21.2352147,27.9257669 C15.1571779,22.9947239 16.1065031,10.8765644 16.1065031,10.8765644 L16.1065031,10.8765644 Z" id="Fill-9" fill="#FFFFFF"></path>
                <path d="M19.5022086,16.8368098 L42.4774233,16.8368098 C42.4774233,16.8368098 41.2373006,28.8268712 31.2360736,28.376319 C21.2352147,27.9257669 19.5022086,16.8368098 19.5022086,16.8368098" id="Fill-10" fill="#AC2430"></path>
            </g>
            <text id="=-copy" font-family="OpenSans-Semibold, Open Sans" font-size="24" font-weight="500" fill="#000000">
                <tspan x="158.150391" y="39">=</tspan>
            </text>
            <text id="A-nip-(30ml)" font-family="OpenSans, Open Sans" font-size="9" font-weight="normal" fill="#000000">
                <tspan x="95.0236816" y="80">A nip (30ml)</tspan>
                <tspan x="101.835205" y="93">of spirits</tspan>
            </text>
            <g id="Spirit" transform="translate(91.000000, 0.000000)">
                <path d="M59.9510186,30.2059251 C59.9510186,46.8879598 46.5865529,60.4115013 30.1005722,60.4115013 C13.6145916,60.4115013 0.250125865,46.8879598 0.250125865,30.2059251 C0.250125865,13.5235415 13.6145916,0 30.1005722,0 C46.5865529,0 59.9510186,13.5235415 59.9510186,30.2059251" id="Fill-15" fill="#FBD57E"></path>
                <path d="M1.04236553,22.7694773 C0.744447136,23.6091606 0,25.9045975 0,29.9568458 C0,44.2175086 9.6408346,56.4056501 22.7743612,59.5753065 L44.8224155,47.0676178 L44.8224155,18.2839566 L19.7735485,18.1095313 L1.04236553,22.7694773" id="Fill-16" fill="#E3C170"></path>
                <path d="M22.9292509,45.2898753 C22.9292509,45.2898753 21.7571129,47.0676178 32.304959,47.0676178 C42.8528051,47.0676178 43.5766701,45.253246 43.5766701,45.253246 L44.8224155,20.7004445 L21.3566325,20.7004445 L22.9292509,45.2898753 L22.9292509,45.2898753 Z M20.1105382,46.2914253 L18.0617387,19.1201514 C18.0617387,19.1201514 17.7687042,17.1386801 20.9411514,17.1386801 C24.1139474,17.1386801 42.769081,17.3678749 44.6148494,17.3678749 C46.4609667,17.3678749 47.5308914,19.1201514 47.5308914,19.1201514 C47.5308914,19.1201514 46.2760759,45.3338305 46.2760759,47.1220385 C46.2760759,48.9102466 43.3753833,48.6336081 43.3753833,48.6336081 C43.3753833,48.6336081 24.7366457,48.6468644 22.6023779,48.6297707 C20.46811,48.612677 20.1105382,46.2914253 20.1105382,46.2914253 L20.1105382,46.2914253 Z" id="Fill-17" fill="#FFFFFF"></path>
                <path d="M24.257325,44.3040235 C24.257325,44.3040235 23.2386813,45.3467379 32.4075211,45.3467379 C41.5767097,45.3467379 42.2056873,44.2827437 42.2056873,44.2827437 L43.2888684,29.8860291 L22.8905284,29.8860291 L24.257325,44.3040235" id="Fill-18" fill="#B7A477"></path>
            </g>
            <text id="=" font-family="OpenSans-Semibold, Open Sans" font-size="24" font-weight="500" fill="#000000">
                <tspan x="68.1503906" y="39">=</tspan>
            </text>
            <text id="A-full-strength" font-family="OpenSans, Open Sans" font-size="9" font-weight="normal" fill="#000000">
                <tspan x="0.0764160156" y="80">A full strength</tspan>
                <tspan x="2.98120117" y="93">beer (285ml)</tspan>
            </text>
            <g id="Beer" transform="translate(1.000000, 0.000000)">
                <mask id="mask-2" fill="white">
                    <use xlink:href="#path-1"></use>
                </mask>
                <g id="Clip-2"></g>
                <path d="M59.7008927,30.2059251 C59.7008927,46.8879598 46.336427,60.4115013 29.8504464,60.4115013 C13.3644657,60.4115013 0,46.8879598 0,30.2059251 C0,13.5235415 13.3644657,0 29.8504464,0 C46.336427,0 59.7008927,13.5235415 59.7008927,30.2059251" id="Fill-1" fill="#FBD57E" mask="url(#mask-2)"></path>
                <path d="M1.04236553,22.651217 C0.744447136,23.4909003 0,25.7863371 0,29.8385854 C0,44.0992483 9.6408346,56.2873898 22.7743612,59.4570461 L39.547097,48.7961725 L39.547097,26.9462653 L37.3723625,16.3959772 L15.9613094,16.637033 L1.04236553,22.651217" id="Fill-4" fill="#E3C170" mask="url(#mask-2)"></path>
                <path d="M40.4391148,28.9933205 L40.4391148,41.8331149 C40.4391148,41.8331149 40.9236682,42.3661586 43.4430671,42.3661586 C45.9628148,42.3661586 46.398878,40.864008 46.398878,39.6043085 L46.398878,30.5921027 C46.398878,29.4778739 45.5752418,28.2666647 43.4189964,28.2666647 C41.262751,28.2666647 40.4391148,28.9933205 40.4391148,28.9933205 L40.4391148,28.9933205 Z M32.3150825,45.563723 C32.3150825,45.563723 31.9759997,47.550427 35.0284423,47.550427 C38.0808848,47.550427 37.7529653,45.7091937 37.7529653,45.7091937 L37.7418021,20.9502215 C37.7418021,20.9502215 37.6933118,18.7699054 34.979952,18.7699054 C32.2665922,18.7699054 32.3150825,20.9502215 32.3150825,20.9502215 L32.3150825,45.563723 L32.3150825,45.563723 Z M24.2583783,45.563723 C24.2583783,45.563723 23.8572002,47.550427 27.4667571,47.550427 C31.0759652,47.550427 30.6880434,45.7091937 30.6880434,45.7091937 L30.674787,20.9502215 C30.674787,20.9502215 30.6175756,18.7699054 27.4091968,18.7699054 C24.2011669,18.7699054 24.2583783,20.9502215 24.2583783,20.9502215 L24.2583783,45.563723 L24.2583783,45.563723 Z M16.8432104,45.563723 C16.8432104,45.563723 16.5041277,47.550427 19.5565702,47.550427 C22.6090128,47.550427 22.2810933,45.7091937 22.2810933,45.7091937 L22.2695812,20.9502215 C22.2695812,20.9502215 22.2214398,18.7699054 19.50808,18.7699054 C16.7947202,18.7699054 16.8432104,20.9502215 16.8432104,20.9502215 L16.8432104,45.563723 L16.8432104,45.563723 Z M14.7113845,48.6165144 L14.7113845,18.0432497 C14.7113845,18.0432497 14.5174236,16.3959772 17.1822932,16.3959772 L38.4042693,16.3959772 C39.9545613,16.3959772 40.3421343,18.285352 40.3421343,18.285352 L40.2455027,26.4739216 L44.6061349,26.4739216 C44.6061349,26.4739216 48.3852332,26.2314704 48.3852332,30.3015102 L48.3852332,40.1858425 C48.3852332,44.1104115 44.6546252,44.1589017 44.6546252,44.1589017 L40.3906245,44.1589017 C40.3906245,44.1589017 40.3421343,47.3083247 40.3421343,48.8101265 C40.3421343,50.3122771 38.3072889,50.0698259 38.3072889,50.0698259 C38.3072889,50.0698259 17.8123173,50.0844776 16.0195742,50.0698259 C14.2268311,50.055523 14.7113845,48.6165144 14.7113845,48.6165144 L14.7113845,48.6165144 Z" id="Fill-5" fill="#FFFFFF" mask="url(#mask-2)"></path>
                <path d="M18.9743416,14.9716203 L36.0296464,14.9716203 C36.0296464,14.9716203 37.8220407,14.2931059 37.0953849,12.5973433 C36.3687292,10.9015806 34.5274958,12.2097703 34.5274958,12.2097703 C34.5274958,12.2097703 34.8721602,10.7561099 33.2677964,10.2230662 C31.6630837,9.69037139 31.1359705,10.4655174 31.1359705,10.4655174 C31.1359705,10.4655174 30.651417,8.72126448 28.0350377,8.72126448 C25.4186583,8.72126448 25.4186583,10.5140076 25.4186583,10.5140076 C25.4186583,10.5140076 25.0792267,9.39943 23.1413618,9.64188116 C21.203148,9.88398346 21.0576773,11.5797461 21.0576773,11.5797461 C21.0576773,11.5797461 19.7979778,10.7156432 18.9743416,11.2891536 C18.1507054,11.8626639 17.5210301,12.3067507 17.9086031,13.8085525 C18.2961761,15.3107031 18.9743416,14.9716203 18.9743416,14.9716203" id="Fill-6" fill="#FFFFFF" mask="url(#mask-2)"></path>
            </g>
        </g>
    </g>
</svg>