<?xml version="1.0" encoding="UTF-8" standalone="no"?>
<svg width="39px" height="78px" viewBox="0 0 39 78" version="1.1" xmlns="http://www.w3.org/2000/svg" xmlns:xlink="http://www.w3.org/1999/xlink">
    <!-- Generator: Sketch 3.6 (26304) - http://www.bohemiancoding.com/sketch -->
    <title>Female</title>
    <desc>Created with Sketch.</desc>
    <defs></defs>
    <g id="Page-1" stroke="none" stroke-width="1" fill="none" fill-rule="evenodd">
        <g id="Female" transform="translate(-1.000000, 0.000000)" fill="#000000">
            <path d="M28.825,8.756 C28.825,13.357 25.094,17.089 20.494,17.089 C15.892,17.089 12.162,13.357 12.162,8.756 C12.162,4.154 15.892,0.425 20.494,0.425 C25.094,0.425 28.825,4.155 28.825,8.756 L28.825,8.756 Z" id="Shape"></path>
            <path d="M29.848,18.941 L11.142,18.941 C9.067,18.941 7.31,20.305 6.721,22.185 L1.075,44.774 C0.691,46.311 1.625,47.87 3.163,48.253 C4.709,48.64 6.268,47.705 6.652,46.167 L10.366,31.311 C10.491,30.815 10.989,30.513 11.479,30.635 C11.97,30.759 12.267,31.26 12.144,31.756 L6.15,57.728 L11.7,57.73 L11.7,73.872 C11.7,75.916 13.358,77.575 15.403,77.575 C17.448,77.575 19.106,75.916 19.106,73.872 L19.106,57.73 L21.882,57.73 L21.882,73.872 C21.882,75.916 23.541,77.575 25.586,77.575 C27.631,77.575 29.288,75.916 29.288,73.872 L29.288,57.729 L34.837,57.726 L28.844,31.75 C28.72,31.255 29.018,30.754 29.51,30.634 C30,30.514 30.498,30.818 30.623,31.313 L34.337,46.167 C34.72,47.705 36.279,48.641 37.817,48.256 C39.363,47.869 40.297,46.311 39.914,44.773 L34.268,22.185 C33.679,20.305 31.922,18.941 29.848,18.941 Z" id="Shape"></path>
        </g>
    </g>
</svg>