<?xml version="1.0" encoding="UTF-8" standalone="no"?>
<svg width="168px" height="100px" viewBox="0 0 168 100" version="1.1" xmlns="http://www.w3.org/2000/svg" xmlns:xlink="http://www.w3.org/1999/xlink">
    <defs></defs>
    <g id="Page-1" stroke="none" stroke-width="1" fill="none" fill-rule="evenodd">
        <g id="Logo-Copy">
            <path d="M167.384447,34.3887967 C167.384447,53.1315353 152.231594,68.3257261 133.539433,68.3257261 C114.847686,68.3257261 99.6948331,53.1315353 99.6948331,34.3887967 C99.6948331,15.6456432 114.847686,0.45186722 133.539433,0.45186722 C152.231594,0.45186722 167.384447,15.6456432 167.384447,34.3887967" id="Fill-89" fill="#C2A868"></path>
            <path d="M163.010073,34.3373444 C163.010073,53.080083 147.85722,68.2742739 129.165473,68.2742739 C110.473727,68.2742739 95.3208733,53.080083 95.3208733,34.3373444 C95.3208733,15.5946058 110.473727,0.400414938 129.165473,0.400414938 C147.85722,0.400414938 163.010073,15.5946058 163.010073,34.3373444" id="Fill-90" fill="#C2A868"></path>
            <path d="M4.03877458,74.973029 C4.47699817,74.0676349 5.2247508,73.2917012 6.28286008,72.6452282 C7.34014175,71.9987552 8.52694559,71.6751037 9.84244399,71.6751037 C11.028834,71.6751037 12.0480453,71.8759336 12.8992501,72.2763485 C13.750455,72.6775934 14.4597234,73.2141079 15.0274691,73.886722 C15.5943873,74.5593361 16.0139895,75.3481328 16.2850343,76.253112 C16.5556653,77.1589212 16.6909808,78.1290456 16.6909808,79.1630705 L16.6909808,90.5697095 L13.0540146,90.5697095 L13.0540146,80.380083 C13.0540146,79.6282158 12.9960814,78.9145228 12.8798011,78.2406639 C12.7639346,77.56639 12.550823,76.9705394 12.241294,76.4514523 C11.931765,75.933195 11.5125766,75.5186722 10.9837289,75.206639 C10.4548811,74.8958506 9.76506173,74.740249 8.91385688,74.740249 C7.46883631,74.740249 6.28286008,75.2912863 5.35427298,76.393361 C4.42568587,77.4954357 3.96139232,78.966805 3.96139232,80.8078838 L3.96139232,90.5697095 L0.324012346,90.5697095 L0.324012346,61.2381743 L3.96139232,61.2381743 L3.96139232,74.973029 L4.03877458,74.973029" id="Fill-91" fill="#EE9F35"></path>
            <path d="M34.3349634,79.7452282 C34.3088935,79.0211618 34.1859922,78.3423237 33.9670873,77.7082988 C33.7477686,77.0746888 33.4254115,76.5248963 33.000016,76.0593361 C32.5742067,75.5937759 32.0453589,75.2248963 31.4134728,74.953527 C30.7811728,74.6817427 30.0400412,74.5460581 29.1888363,74.5460581 C28.4150137,74.5460581 27.6858825,74.6817427 27.002684,74.953527 C26.318658,75.2248963 25.7256699,75.5937759 25.2228921,76.0593361 C24.7197005,76.5248963 24.3067193,77.0746888 23.9847759,77.7082988 C23.662005,78.3423237 23.4749634,79.0211618 23.4236511,79.7452282 L34.3349634,79.7452282 L34.3349634,79.7452282 Z M38.0493118,81.2190871 L38.0493118,81.840249 C38.0493118,82.0477178 38.03607,82.2539419 38.0104138,82.4609959 L23.4236511,82.4609959 C23.4488935,83.2319502 23.623107,83.9576763 23.9458779,84.6377593 C24.268235,85.3186722 24.7002515,85.9099585 25.2419273,86.4103734 C25.7840169,86.9112033 26.4088683,87.3029046 27.1185505,87.5854772 C27.8278189,87.8680498 28.5821925,88.0091286 29.382085,88.0091286 C30.6202012,88.0091286 31.6903109,87.7373444 32.5936557,87.1941909 C33.4961728,86.6510373 34.2054412,85.9917012 34.7218747,85.2157676 L37.2754893,87.2717842 C36.2947622,88.5751037 35.1406493,89.5348548 33.8123228,90.1510373 C32.4835825,90.7659751 31.0071125,91.0738589 29.382085,91.0738589 C27.9892044,91.0738589 26.6989483,90.8414938 25.5129721,90.3755187 C24.3261683,89.9103734 23.3073708,89.2572614 22.456166,88.4165975 C21.6049611,87.5759336 20.9337631,86.5605809 20.4442273,85.3705394 C19.9538637,84.1813278 19.7088889,82.8622407 19.7088889,81.413278 C19.7088889,79.9912863 19.9476566,78.6780083 20.4260197,77.4755187 C20.9043827,76.2726141 21.5697874,75.2443983 22.4230613,74.3908714 C23.2759214,73.5373444 24.2843736,72.8717842 25.4475903,72.3929461 C26.610807,71.9145228 27.8642341,71.6751037 29.2086991,71.6751037 C30.5527503,71.6751037 31.7739003,71.8954357 32.8729767,72.3348548 C33.9716392,72.7746888 34.9018816,73.4082988 35.6649451,74.2356846 C36.4271811,75.0639004 37.0156173,76.0659751 37.4290123,77.2427386 C37.8424074,78.419917 38.0493118,79.7452282 38.0493118,81.2190871 L38.0493118,81.2190871 Z" id="Fill-92" fill="#EE9F35"></path>
            <path d="M51.4368564,81.8012448 C50.5339255,81.8012448 49.5991312,81.840249 48.6316461,81.9178423 C47.6645748,81.9954357 46.7873,82.1506224 46.0006493,82.3834025 C45.2135848,82.6161826 44.5622497,82.9651452 44.0466438,83.4311203 C43.5302103,83.8962656 43.2728212,84.5170124 43.2728212,85.2929461 C43.2728212,85.8365145 43.3820668,86.2892116 43.6017993,86.6510373 C43.8207042,87.0136929 44.1107842,87.3107884 44.4724531,87.5435685 C44.8332945,87.7763485 45.2330338,87.9381743 45.6716712,88.0282158 C46.1098948,88.1195021 46.5617741,88.1643154 47.0260677,88.1643154 C48.7284774,88.1643154 50.0373548,87.6539419 50.9535277,86.6319502 C51.8684591,85.6099585 52.3269593,84.3232365 52.3269593,82.7713693 L52.3269593,81.8012448 L51.4368564,81.8012448 L51.4368564,81.8012448 Z M52.3269593,78.6585062 C52.3269593,77.2879668 51.9139781,76.2726141 51.0888432,75.613278 C50.2628807,74.953527 49.166701,74.6236515 47.7998903,74.6236515 C46.7678509,74.6236515 45.7937449,74.8244813 44.8783996,75.2248963 C43.9626406,75.626556 43.195439,76.1369295 42.5763809,76.7576763 L40.6418244,74.4298755 C41.5443416,73.5763485 42.6471422,72.9041494 43.9498125,72.4124481 C45.252069,71.9211618 46.6519845,71.6751037 48.1479035,71.6751037 C49.4634019,71.6751037 50.6051006,71.8630705 51.5721719,72.2377593 C52.5396571,72.6128631 53.3329287,73.1240664 53.9519867,73.7701245 C54.5710448,74.4170124 55.0353384,75.180083 55.3448674,76.0593361 C55.6543964,76.9390041 55.809161,77.8825726 55.809161,78.8912863 L55.809161,86.9228216 C55.809161,87.5435685 55.82861,88.1970954 55.8670942,88.8821577 C55.9059922,89.5676349 55.9767535,90.1302905 56.0802058,90.5697095 L52.7912529,90.5697095 C52.5843484,89.6908714 52.4817238,88.8112033 52.4817238,87.9315353 L52.3654435,87.9315353 C51.6946594,88.9149378 50.8500754,89.6771784 49.831278,90.220332 C48.8120668,90.7639004 47.6062277,91.0352697 46.2133471,91.0352697 C45.4908368,91.0352697 44.7364632,90.9381743 43.9498125,90.7443983 C43.1627481,90.5502075 42.4468587,90.2340249 41.8025583,89.7937759 C41.1574303,89.3543568 40.6223754,88.7721992 40.1969799,88.0477178 C39.7711706,87.3240664 39.5584728,86.4315353 39.5584728,85.3705394 C39.5584728,83.9742739 39.9317284,82.8680498 40.6803086,82.053527 C41.4280613,81.2385892 42.4083745,80.6178423 43.6212483,80.1912863 C44.8332945,79.7643154 46.2001052,79.486722 47.722508,79.3572614 C49.2440832,79.2278008 50.7793141,79.1630705 52.3269593,79.1630705 L52.3269593,78.6585062 L52.3269593,78.6585062 Z" id="Fill-93" fill="#EE9F35"></path>
            <path d="M60.0262872,61.2381743 L63.6636671,61.2381743 L63.6636671,90.5697095 L60.0262872,90.5697095 L60.0262872,61.2381743 Z" id="Fill-94" fill="#EE9F35"></path>
            <path d="M77.0507979,75.166805 L72.1757156,75.166805 L72.1757156,84.7211618 C72.1757156,85.8298755 72.3817924,86.6224066 72.7947737,87.0995851 C73.2069273,87.5767635 73.8648834,87.8149378 74.7678144,87.8149378 C75.1029995,87.8149378 75.4646685,87.780083 75.8515798,87.7082988 C76.2384911,87.6373444 76.5865043,87.5307054 76.8960334,87.3883817 L77.0123137,90.3755187 C76.5732625,90.5307054 76.0895199,90.653527 75.561086,90.7443983 C75.0322382,90.8344398 74.4839415,90.880083 73.9166095,90.880083 C72.1885437,90.880083 70.8660105,90.4016598 69.9506653,89.4443983 C69.0349063,88.4879668 68.5772337,87.0526971 68.5772337,85.1381743 L68.5772337,75.166805 L65.056134,75.166805 L65.056134,72.1792531 L68.5772337,72.1792531 L68.5772337,66.9029046 L72.1757156,66.9029046 L72.1757156,72.1792531 L77.0507979,72.1792531 L77.0507979,75.166805" id="Fill-95" fill="#EE9F35"></path>
            <path d="M82.6608048,74.973029 C83.0994422,74.0676349 83.8471948,73.2917012 84.9053041,72.6452282 C85.9625857,71.9987552 87.1493896,71.6751037 88.464888,71.6751037 C89.6508642,71.6751037 90.6704893,71.8759336 91.5216941,72.2763485 C92.3728989,72.6775934 93.0817535,73.2141079 93.6499131,73.886722 C94.2168313,74.5593361 94.6364335,75.3481328 94.9070645,76.253112 C95.1781093,77.1589212 95.3134248,78.1290456 95.3134248,79.1630705 L95.3134248,90.5697095 L91.6764586,90.5697095 L91.6764586,80.380083 C91.6764586,79.6282158 91.6181116,78.9145228 91.5022451,78.2406639 C91.3863786,77.56639 91.173267,76.9705394 90.863738,76.4514523 C90.554209,75.933195 90.1346068,75.5186722 89.6065866,75.206639 C89.0773251,74.8958506 88.3875057,74.740249 87.5363009,74.740249 C86.0912803,74.740249 84.9053041,75.2912863 83.976717,76.393361 C83.0481299,77.4954357 82.5834225,78.966805 82.5834225,80.8078838 L82.5834225,90.5697095 L78.9464563,90.5697095 L78.9464563,61.2381743 L82.5834225,61.2381743 L82.5834225,74.973029 L82.6608048,74.973029" id="Fill-96" fill="#EE9F35"></path>
            <path d="M110.016882,72.9165975 C108.726626,72.9165975 107.534028,73.2082988 106.437435,73.7917012 C105.340841,74.3746888 104.392805,75.1522822 103.59374,76.1248963 C102.793848,77.0970954 102.161962,78.2053942 101.697668,79.4493776 C101.233374,80.6937759 101.001228,81.9771784 101.001228,83.2987552 C101.001228,84.2838174 101.162199,85.2107884 101.48497,86.0788382 C101.807327,86.9477178 102.271621,87.6991701 102.877851,88.3348548 C103.483667,88.9697095 104.219005,89.4751037 105.083452,89.8506224 C105.947485,90.226556 106.907936,90.4145228 107.966045,90.4145228 C109.358925,90.4145228 110.629319,90.1294606 111.777225,89.5593361 C112.924717,88.9892116 113.90503,88.2311203 114.71775,87.2846473 C115.530471,86.3385892 116.155322,85.2497925 116.594374,84.0182573 C117.032597,82.7871369 117.251916,81.5103734 117.251916,80.1879668 C117.251916,79.1771784 117.103358,78.2307054 116.807485,77.3493776 C116.51037,76.4680498 116.058905,75.6966805 115.453089,75.0360996 C114.846859,74.3751037 114.092071,73.8564315 113.189554,73.480083 C112.286209,73.1045643 111.228928,72.9165975 110.016882,72.9165975 L110.016882,72.9165975 Z M98.0222176,99.8813278 L97.1710128,99.8813278 L101.930229,72.7228216 L102.781433,72.7228216 L101.930229,77.3008299 L102.046095,77.3008299 C102.380866,76.5767635 102.819918,75.9041494 103.361594,75.2834025 C103.903269,74.6626556 104.515706,74.1195021 105.199733,73.6539419 C105.882517,73.1883817 106.637305,72.826556 107.462853,72.5676349 C108.288402,72.3091286 109.165263,72.1792531 110.094264,72.1792531 C111.435005,72.1792531 112.602359,72.380083 113.595914,72.7809129 C114.588642,73.1821577 115.420398,73.7381743 116.091596,74.4489627 C116.761966,75.1605809 117.264744,76.0012448 117.600343,76.9709544 C117.935528,77.9406639 118.103535,78.9950207 118.103535,80.133195 C118.103535,81.5817427 117.864353,82.9651452 117.387645,84.2846473 C116.91011,85.6037344 116.233118,86.7676349 115.356257,87.7763485 C114.478983,88.7850622 113.41508,89.5937759 112.164136,90.2012448 C110.912778,90.8082988 109.51369,91.1128631 107.966045,91.1128631 C106.056731,91.1128631 104.451152,90.6020747 103.148896,89.580083 C101.845812,88.5589212 101.001228,87.233195 100.614316,85.6037344 L100.49845,85.6037344 L98.0222176,99.8813278 L98.0222176,99.8813278 Z" id="Fill-97" fill="#EE9F35"></path>
            <path d="M140.002714,80.2037344 C140.002714,79.2170124 139.854156,78.2821577 139.557869,77.3983402 C139.260754,76.5149378 138.803082,75.7352697 138.184024,75.060166 C137.564966,74.3850622 136.791143,73.8526971 135.862556,73.4630705 C134.933969,73.073029 133.837375,72.8775934 132.573603,72.8775934 C131.128583,72.8775934 129.832533,73.1639004 128.685041,73.7356846 C127.537135,74.3070539 126.556822,75.0609959 125.744515,75.9954357 C124.931795,76.9311203 124.306116,78.0157676 123.867892,79.2497925 C123.429255,80.4842324 123.209936,81.7630705 123.209936,83.0883817 C123.209936,84.0755187 123.35808,85.0174274 123.655194,85.913278 C123.951481,86.8099585 124.402947,87.5896266 125.009177,88.2514523 C125.614993,88.9141079 126.383022,89.440249 127.31161,89.8302905 C128.240197,90.219917 129.336376,90.4145228 130.600562,90.4145228 C132.018685,90.4145228 133.308941,90.1356846 134.469675,89.5767635 C135.630409,89.0186722 136.623137,88.2647303 137.448685,87.3165975 C138.274234,86.3684647 138.90612,85.2775934 139.344758,84.0431535 C139.782981,82.8091286 140.002714,81.5290456 140.002714,80.2037344 L140.002714,80.2037344 Z M122.358731,83.120332 C122.358731,81.6983402 122.597085,80.326971 123.07462,79.0078838 C123.551742,77.6887967 124.235354,76.5248963 125.125457,75.5161826 C126.015146,74.5074689 127.098912,73.6991701 128.375512,73.0912863 C129.652526,72.4838174 131.077684,72.1792531 132.650985,72.1792531 C134.017796,72.1792531 135.210807,72.386722 136.230432,72.8004149 C137.248816,73.2141079 138.100021,73.7834025 138.784047,74.5074689 C139.466831,75.2319502 139.983265,76.0788382 140.331692,77.0485477 C140.679705,78.0186722 140.853919,79.060166 140.853919,80.1717842 C140.853919,81.6207469 140.615151,83.0041494 140.138029,84.3232365 C139.660494,85.6423237 138.977295,86.8062241 138.087193,87.8149378 C137.197503,88.8236515 136.119945,89.6257261 134.856587,90.220332 C133.592401,90.8153527 132.17345,91.1128631 130.600562,91.1128631 C129.232924,91.1128631 128.033292,90.9053942 127.00208,90.4921162 C125.970041,90.0784232 125.112215,89.5161826 124.429017,88.8041494 C123.744991,88.093361 123.229385,87.2522822 122.881372,86.2825726 C122.532945,85.3124481 122.358731,84.2589212 122.358731,83.120332 L122.358731,83.120332 Z" id="Fill-98" fill="#EE9F35"></path>
            <path d="M153.196596,90.3755187 C154.459954,90.3755187 155.646758,90.0842324 156.75618,89.5012448 C157.865187,88.9178423 158.819845,88.1406639 159.619323,87.1684647 C160.418802,86.1958506 161.051102,85.0875519 161.515396,83.8431535 C161.979689,82.5991701 162.211836,81.3157676 162.211836,79.9937759 C162.211836,79.0091286 162.05045,78.0821577 161.728093,77.2136929 C161.405322,76.3452282 160.941029,75.5937759 160.335213,74.9585062 C159.728983,74.3228216 158.993644,73.8174274 158.129611,73.4414938 C157.265165,73.0659751 156.304714,72.8775934 155.247019,72.8775934 C153.854138,72.8775934 152.583331,73.1634855 151.435839,73.733195 C150.287933,74.3037344 149.308034,75.0622407 148.495313,76.0082988 C147.683006,76.9547718 147.056914,78.0435685 146.61869,79.2746888 C146.180053,80.5058091 145.961148,81.7825726 145.961148,83.1041494 C145.961148,84.1153527 146.108877,85.0614108 146.405992,85.9431535 C146.702279,86.8244813 147.147124,87.5962656 147.74094,88.2568465 C148.333928,88.9178423 149.088301,89.4360996 150.004474,89.8120332 C150.919819,90.1879668 151.983722,90.3755187 153.196596,90.3755187 L153.196596,90.3755187 Z M153.119214,91.1128631 C151.777231,91.1128631 150.61029,90.9120332 149.617149,90.5116183 C148.624008,90.1107884 147.792252,89.5551867 147.121468,88.8431535 C146.450684,88.1319502 145.947492,87.2912863 145.612721,86.3211618 C145.277122,85.3514523 145.109943,84.2979253 145.109943,83.1593361 C145.109943,81.7112033 145.347883,80.326971 145.825832,79.0078838 C146.30254,77.6887967 146.979531,76.5248963 147.856806,75.5161826 C148.733667,74.5074689 149.79757,73.6991701 151.048928,73.0912863 C152.299872,72.4838174 153.699374,72.1792531 155.247019,72.1792531 C157.155919,72.1792531 158.761497,72.6904564 160.064582,73.7120332 C161.366424,74.7340249 162.211836,76.0593361 162.598747,77.6887967 L162.714614,77.6887967 L165.539273,61.2381743 L166.390478,61.2381743 L161.244351,90.5697095 L160.393146,90.5697095 L161.283249,85.9917012 L161.166968,85.9917012 C160.805713,86.7161826 160.360869,87.3883817 159.832435,88.0091286 C159.303173,88.6298755 158.696943,89.173029 158.013745,89.6385892 C157.330133,90.1041494 156.575345,90.466805 155.75021,90.7248963 C154.924248,90.9829876 154.047801,91.1128631 153.119214,91.1128631 L153.119214,91.1128631 Z" id="Fill-99" fill="#EE9F35"></path>
            <path d="M165.451132,34.3887967 C165.451132,53.1315353 150.298278,68.3257261 131.606532,68.3257261 C112.914371,68.3257261 97.7619319,53.1315353 97.7619319,34.3887967 C97.7619319,15.6456432 112.914371,0.45186722 131.606532,0.45186722 C150.298278,0.45186722 165.451132,15.6456432 165.451132,34.3887967" id="Fill-100" fill="#EE9F35"></path>
            <path d="M141.121653,34.3887967 C141.121653,39.5103734 137.029911,43.6626556 131.98227,43.6626556 C126.934216,43.6626556 122.842474,39.5103734 122.842474,34.3887967 C122.842474,29.266805 126.934216,25.1149378 131.98227,25.1149378 C137.029911,25.1149378 141.121653,29.266805 141.121653,34.3887967" id="Fill-101" fill="#888494"></path>
            <path d="M136.919424,13.8348548 C136.919424,18.9564315 132.827268,23.1087137 127.779627,23.1087137 C122.731987,23.1087137 118.639831,18.9564315 118.639831,13.8348548 C118.639831,8.71286307 122.731987,4.56099585 127.779627,4.56099585 C132.827268,4.56099585 136.919424,8.71286307 136.919424,13.8348548" id="Fill-102" fill="#A2C2B1"></path>
            <path d="M120.706806,30.8406639 C120.706806,35.9622407 116.61465,40.1141079 111.56701,40.1141079 C106.518955,40.1141079 102.427213,35.9622407 102.427213,30.8406639 C102.427213,25.7186722 106.518955,21.566805 111.56701,21.566805 C116.61465,21.566805 120.706806,25.7186722 120.706806,30.8406639" id="Fill-103" fill="#DA8377"></path>
            <path d="M159.401246,23.2564315 C159.401246,28.3784232 155.309504,32.5302905 150.261449,32.5302905 C145.213809,32.5302905 141.121653,28.3784232 141.121653,23.2564315 C141.121653,18.1348548 145.213809,13.9829876 150.261449,13.9829876 C155.309504,13.9829876 159.401246,18.1348548 159.401246,23.2564315" id="Fill-104" fill="#E3C170"></path>
            <path d="M155.414611,49.2037344 C155.414611,54.3257261 151.322869,58.4775934 146.274815,58.4775934 C141.227174,58.4775934 137.135018,54.3257261 137.135018,49.2037344 C137.135018,44.0821577 141.227174,39.9298755 146.274815,39.9298755 C151.322869,39.9298755 155.414611,44.0821577 155.414611,49.2037344" id="Fill-105" fill="#D8B992"></path>
            <path d="M128.352753,50.4871369 C128.352753,55.6356846 124.239079,59.8095436 119.164954,59.8095436 C114.09083,59.8095436 109.977156,55.6356846 109.977156,50.4871369 C109.977156,45.3385892 114.09083,41.1647303 119.164954,41.1647303 C124.239079,41.1647303 128.352753,45.3385892 128.352753,50.4871369" id="Fill-106" fill="#90BFC5"></path>
            <path d="M111.791708,45.0489627 C111.734188,45.2116183 110.796084,46.0307054 110.26227,48.0381743 C110.091367,48.6813278 109.977156,49.9294606 109.977156,50.3958506 C109.977156,52.646473 110.818429,55.7568465 113.067894,57.4589212 C115.217218,59.0850622 115.808551,59.8095436 120.706806,59.8207469 C120.706806,59.8207469 117.944218,59.3680498 115.733237,57.9120332 C114.195937,56.9 112.844851,55.3049793 112.078477,54.0157676 C110.21013,50.8717842 111.791708,45.0489627 111.791708,45.0489627" id="Fill-107" fill="#9FD5DD"></path>
            <path d="M124.624749,28.8904564 C124.567229,29.053112 123.629124,29.8721992 123.095311,31.879668 C122.923994,32.5228216 122.810197,33.7709544 122.810197,34.2373444 C122.810197,36.4879668 123.65147,39.5983402 125.900935,41.3004149 C128.050258,42.926971 128.641591,43.6514523 133.539433,43.6626556 C133.539433,43.6626556 130.777259,43.2095436 128.565864,41.7539419 C127.028564,40.7414938 125.677478,39.146473 124.911518,37.8572614 C123.042757,34.713278 124.624749,28.8904564 124.624749,28.8904564" id="Fill-108" fill="#9999B1"></path>
            <path d="M139.060471,43.8410788 C139.002952,44.0033195 138.064847,44.8228216 137.531033,46.8298755 C137.359717,47.473444 137.245505,48.7215768 137.245505,49.1875519 C137.245505,51.4381743 138.087193,54.5485477 140.336658,56.2506224 C142.485981,57.8771784 143.0769,58.6016598 147.975155,58.6128631 C147.975155,58.6128631 145.212981,58.160166 143.001587,56.7041494 C141.464287,55.6921162 140.113201,54.0970954 139.347241,52.8074689 C137.47848,49.6634855 139.060471,43.8410788 139.060471,43.8410788" id="Fill-109" fill="#F4B673"></path>
            <path d="M143.010277,17.7290456 C142.952757,17.8917012 142.014652,18.7107884 141.480839,20.7178423 C141.309522,21.3614108 141.195725,22.6095436 141.195725,23.0755187 C141.195725,25.3261411 142.036998,28.4365145 144.286463,30.1385892 C146.435786,31.7651452 147.026706,32.4896266 151.924961,32.5008299 C151.924961,32.5008299 149.162787,32.0481328 146.951392,30.5921162 C145.414092,29.580083 144.063006,27.9850622 143.297046,26.6958506 C141.428285,23.5514523 143.010277,17.7290456 143.010277,17.7290456" id="Fill-110" fill="#FBD57E"></path>
            <path d="M120.418381,8.33651452 C120.360862,8.49917012 119.422757,9.31825726 118.888944,11.3257261 C118.717627,11.9688797 118.603416,13.2170124 118.603416,13.6834025 C118.603416,15.9340249 119.445103,19.0443983 121.694568,20.746473 C123.843891,22.373029 124.43481,23.0975104 129.333066,23.1087137 C129.333066,23.1087137 126.570892,22.6556017 124.359497,21.2 C122.822197,20.1875519 121.471111,18.5925311 120.704737,17.3033195 C118.83639,14.1593361 120.418381,8.33651452 120.418381,8.33651452" id="Fill-111" fill="#B2D8C5"></path>
            <path d="M104.346045,25.293361 C104.288525,25.4560166 103.350421,26.2751037 102.816607,28.2825726 C102.645704,28.9257261 102.531493,30.1738589 102.531493,30.640249 C102.531493,32.8908714 103.37318,36.0012448 105.622231,37.7033195 C107.771968,39.3298755 108.362888,40.0539419 113.261143,40.0655602 C113.261143,40.0655602 110.498969,39.6124481 108.287574,38.1568465 C106.750274,37.1443983 105.399188,35.5493776 104.632814,34.260166 C102.764467,31.1161826 104.346045,25.293361 104.346045,25.293361" id="Fill-112" fill="#EB9185"></path>
        </g>
    </g>
</svg>