<?xml version="1.0" encoding="UTF-8" standalone="no"?>
<svg width="38px" height="78px" viewBox="0 0 38 78" version="1.1" xmlns="http://www.w3.org/2000/svg" xmlns:xlink="http://www.w3.org/1999/xlink">
    <defs></defs>
    <g id="Page-1" stroke="none" stroke-width="1" fill="none" fill-rule="evenodd">
        <g id="Male" fill="#000000">
            <path d="M29.625,29.125 L29.625,44.555 C29.625,46.599 31.284,48.258 33.329,48.258 C35.373,48.258 37.032,46.599 37.032,44.555 L37.032,28.199 C37.032,23.086 32.886,18.941 27.774,18.941 L9.258,18.941 C4.146,18.941 0,23.086 0,28.199 L0,44.555 C0,46.599 1.659,48.258 3.703,48.258 C5.748,48.258 7.407,46.599 7.407,44.555 L7.407,29.125 C7.407,28.613 7.821,28.199 8.332,28.199 L8.332,28.199 C8.845,28.199 9.258,28.613 9.258,29.125 L9.258,73.409 C9.258,75.709 11.124,77.575 13.424,77.575 C15.725,77.575 17.59,75.709 17.59,73.409 L17.59,49.184 C17.59,48.671 18.005,48.258 18.516,48.258 L18.516,48.258 C19.027,48.258 19.442,48.671 19.442,49.184 L19.442,73.409 C19.442,75.709 21.307,77.575 23.608,77.575 C25.909,77.575 27.774,75.709 27.774,73.409 L27.774,29.125 C27.774,28.613 28.188,28.199 28.7,28.199 L28.7,28.199 C29.211,28.199 29.625,28.612 29.625,29.125 L29.625,29.125 Z" id="Shape"></path>
            <path d="M26.848,8.756 C26.848,13.357 23.116,17.089 18.516,17.089 C13.914,17.089 10.184,13.357 10.184,8.756 C10.184,4.154 13.914,0.425 18.516,0.425 C23.116,0.425 26.848,4.155 26.848,8.756 L26.848,8.756 Z" id="Shape"></path>
        </g>
    </g>
</svg>
