<?xml version="1.0" encoding="UTF-8" standalone="no"?>
<svg width="118px" height="119px" viewBox="0 0 118 119" version="1.1" xmlns="http://www.w3.org/2000/svg" xmlns:xlink="http://www.w3.org/1999/xlink">
    <!-- Generator: Sketch 3.6 (26304) - http://www.bohemiancoding.com/sketch -->
    <title>Physical Copy</title>
    <desc>Created with Sketch.</desc>
    <defs></defs>
    <g id="Page-1" stroke="none" stroke-width="1" fill="none" fill-rule="evenodd">
        <g id="Physical-Copy">
            <path d="M117.484,59.442 C117.484,92.271 91.184,118.883 58.742,118.883 C26.3,118.883 0,92.271 0,59.442 C0,26.613 26.3,0 58.742,0 C91.184,0 117.484,26.613 117.484,59.442" id="Fill-5" fill="#EEEEEE"></path>
            <path d="M49.833,19.1724718 C47.9,17.5374718 45.303,16.7044718 42.6,17.0954718 C38.782,17.6464718 35.858,20.4764718 35,24.0094718 C37.011,23.9354718 39.731,23.7754718 42.152,23.4264718 C46.467,22.8034718 47.416,21.0924718 49.833,19.1724718" id="Fill-7" fill="#CCCCCC"></path>
            <path d="M43.278,26.036 C40.497,26.853 37.14,26.604 35,26.662 C35.013,26.803 35.03,26.945 35.05,27.087 C35.774,32.099 40.423,35.575 45.435,34.851 C50.446,34.128 53.923,29.478 53.199,24.467 C53.016,23.198 52.58,22.028 51.952,21 C49.331,23.182 48.438,24.518 43.278,26.036" id="Fill-8" fill="#CCCCCC"></path>
            <path d="M23.7689701,34.7351263 C22.0909701,32.7261263 19.9979701,30.8571263 16.8089701,32.8541263 C13.9899701,34.6191263 14.9619701,37.5111263 16.3879701,39.7381263 C17.6149701,39.4591263 19.2849701,38.9361263 20.6469701,37.9901263 C21.8079701,37.1841263 22.9169701,35.8871263 23.7689701,34.7351263" id="Fill-9" fill="#CCCCCC"></path>
            <path d="M82.549,42.826 C81.422,44.088 79.976,44.95 79,45.438 C79.246,45.693 82.746,49.242 85.616,47.118 C89.158,44.498 86.013,40.323 86.013,40.323 C86.013,40.323 85.602,39.806 84.844,39 C84.237,40.326 83.431,41.839 82.549,42.826" id="Fill-10" fill="#CCCCCC"></path>
            <path d="M96.76,91.5837842 L63.648,40.9707842 C63.648,40.9707842 63.301,40.5857842 63.648,40.1257842 C63.942,39.7357842 64.548,39.5457842 64.548,39.5457842 C64.548,39.5457842 66.498,38.5757842 70.421,39.4087842 C72.781,39.9097842 75.426,41.8307842 77.16,43.2827842 C78.079,42.7717842 79.218,42.0057842 80.142,40.9697842 C81.183,39.8057842 82.117,37.9107842 82.744,36.4527842 C79.013,33.0877842 72.484,28.5387842 64.847,29.0377842 C56.134,29.6077842 46.778,36.0127842 46.778,36.0127842 C46.778,36.0127842 41.28,39.5347842 35.972,39.9637842 C30.663,40.3937842 28.864,39.0517842 26.588,37.6797842 C26.244,37.4727842 25.899,37.1437842 25.544,36.7467842 C24.593,37.9497842 23.251,39.4417842 21.876,40.2887842 C20.636,41.0537842 19.177,41.4787842 18,41.7147842 C18.621,42.4357842 19.096,42.8857842 19.096,42.8857842 C19.096,42.8857842 25.811,49.4587842 32.492,50.7027842 C39.173,51.9467842 45.884,49.6197842 45.884,49.6197842 C45.884,49.6197842 46.915,48.9877842 47.732,50.3077842 C49.061,51.9897842 56.773,64.6587842 56.773,64.6587842 C56.773,64.6587842 57.334,65.3237842 56.86,65.7337842 C56.131,66.3647842 44.703,75.9837842 44.703,75.9837842 C44.703,75.9837842 42.593,77.9127842 43.224,79.8577842 C43.855,81.8017842 45.109,82.0607842 46.343,82.8367842 C52.478,86.6907842 68.677,94.2757842 68.677,94.2757842 C68.677,94.2757842 73.149,94.8517842 74.744,90.3267842 C76.339,85.8007842 73.564,84.8757842 73.564,84.8757842 L60.754,77.9427842 C60.754,77.9427842 59.926,77.5067842 60.187,77.3497842 C60.449,77.1927842 61.159,76.7667842 61.159,76.7667842 L70.058,71.6997842 L87.673,97.5277842 C87.673,97.5277842 89.302,98.8877842 93.83,97.1687842 C98.358,95.4497842 96.76,91.5837842 96.76,91.5837842" id="Fill-11" fill="#CCCCCC"></path>
        </g>
    </g>
</svg>