<?xml version="1.0" encoding="UTF-8" standalone="no"?>
<svg width="141px" height="182px" viewBox="0 0 141 182" version="1.1" xmlns="http://www.w3.org/2000/svg" xmlns:xlink="http://www.w3.org/1999/xlink">
    <!-- Generator: Sketch 3.6.1 (26313) - http://www.bohemiancoding.com/sketch -->
    <title>stand_up_straight</title>
    <desc>Created with Sketch.</desc>
    <defs></defs>
    <g id="Page-1" stroke="none" stroke-width="1" fill="none" fill-rule="evenodd">
        <g id="stand_up_straight">
            <path d="M99.084,135.29 C99.084,135.29 97.382,137.554 102.103,139.441 C106.824,141.328 108.896,137.365 108.896,137.365 C108.896,137.365 112.292,124.346 114.179,117.176 C116.066,110.006 110.28,87.49 110.28,87.49 C110.28,87.49 105.955,84.693 100.971,76.014 C95.987,67.334 96.366,55.414 98.174,50.885 C98.917,48.998 99.179,46.609 102.575,46.609 C107.171,47.535 105.109,60.114 105.566,64.732 C105.817,67.272 106.632,71.012 106.632,71.012 C106.632,71.012 109.041,55.806 109.525,52.521 C110.008,49.235 112.795,40.571 102.858,40.571 C92.921,40.571 92.04,54.911 92.04,54.911 C92.04,54.911 88.77,75.414 92.04,81.704 C95.311,87.993 98.707,88.371 98.707,88.371 C98.707,88.371 104.541,96.912 103.943,111.629 C103.345,126.346 99.084,135.29 99.084,135.29" id="Fill-3" fill="#9FCACF"></path>
            <path d="M102.898,48.077 C100.449,47.073 97.518,53.03 98.993,65.412 C100.469,77.793 113.258,88.813 113.258,88.813 C113.258,88.813 115.349,89.803 116.948,88.07 C118.546,86.337 116.456,84.355 116.456,84.355 C116.456,84.355 108.37,76.679 105.634,70.24 C102.898,63.802 105.347,49.082 102.898,48.077" id="Fill-4" fill="#9FCACF"></path>
            <path d="M118.239,34.871 C115.358,39.927 109.994,42.299 106.258,40.17 C102.522,38.042 101.829,32.217 104.71,27.162 C107.591,22.106 112.955,19.734 116.691,21.863 C120.426,23.991 121.12,29.816 118.239,34.871" id="Fill-5" fill="#9FCACF"></path>
            <path d="M83.806,142.66 L120.222,142.66 L120.222,139.207 L135.316,139.207 L135.316,142.66 C135.316,142.66 133.807,142.66 137.769,142.66 C141.732,142.66 141.732,147.944 137.769,147.944 L83.806,147.944 C81.541,147.944 81.164,142.472 83.806,142.66" id="Fill-6" fill="#AEDCE2"></path>
            <path d="M2.663,142.455 L40.173,142.455 L40.173,138.898 L55.721,138.898 L55.721,142.455 C55.721,142.455 54.166,142.455 58.248,142.455 C62.329,142.455 62.329,147.897 58.248,147.897 L2.663,147.897 C0.331,147.897 -0.058,142.261 2.663,142.455" id="Fill-8" fill="#AEDCE2"></path>
            <path d="M57.47,3.599 L28.317,3.599 L59.997,0.101 L59.997,143.706 L57.47,143.706 L57.47,3.599 Z" id="Fill-9" fill="#AEDCE2"></path>
            <path d="M136.47,3.599 L107.317,3.599 L138.997,0.101 L138.997,143.706 L136.47,143.706 L136.47,3.599 Z" id="Fill-9" fill="#AEDCE2"></path>
            <path d="M26.852,135.598 C26.852,135.598 26.852,140.405 30.592,140.405 C34.331,140.405 35.399,138.001 35.399,138.001 L36.735,77.904 L36.735,44.796 C36.735,44.796 35.483,37.784 30.261,37.784 C25.038,37.784 22.967,44.796 22.967,44.796 C22.967,44.796 20.349,79.208 20.349,85.218 C20.349,91.228 27.386,93.93 27.386,93.93 L26.852,135.598" id="Fill-10" fill="#9FCACF"></path>
            <path d="M39.724,25.576 C39.736,31.547 36.169,36.395 31.757,36.404 C27.344,36.413 23.757,31.58 23.744,25.609 C23.732,19.638 27.299,14.79 31.711,14.781 C36.124,14.771 39.711,19.605 39.724,25.576" id="Fill-11" fill="#9FCACF"></path>
            <path d="M31.56,48.077 C29.111,47.073 26.18,53.03 27.656,65.412 C29.131,77.793 41.92,88.813 41.92,88.813 C41.92,88.813 44.011,89.803 45.61,88.07 C47.208,86.337 45.118,84.355 45.118,84.355 C45.118,84.355 37.032,76.679 34.296,70.24 C31.56,63.802 34.009,49.082 31.56,48.077" id="Fill-12" fill="#9FCACF"></path>
            <path d="M42.238,88.305 C42.569,88.435 44.025,88.914 45.175,87.669 C46.366,86.379 44.778,84.85 44.711,84.786 C44.376,84.468 36.503,76.95 33.75,70.471 C32.304,67.067 32.262,61.61 32.225,56.796 C32.202,53.492 32.168,48.966 31.336,48.625 C31.024,48.499 30.712,48.561 30.379,48.815 C28.565,50.192 27.123,55.952 28.241,65.341 C29.619,76.892 41.247,87.426 42.238,88.305 L42.238,88.305 Z M43.283,89.685 C42.617,89.685 42.035,89.522 41.665,89.347 L41.534,89.261 C41.004,88.804 28.553,77.948 27.067,65.482 C25.806,54.898 27.678,49.381 29.663,47.873 C30.328,47.366 31.084,47.241 31.784,47.53 C33.274,48.141 33.367,51.124 33.408,56.787 C33.445,61.49 33.485,66.821 34.841,70.009 C37.496,76.259 45.446,83.851 45.524,83.927 C46.396,84.75 47.623,86.76 46.044,88.47 C45.189,89.397 44.166,89.685 43.283,89.685 L43.283,89.685 Z" id="Fill-13" fill="#EDF4F3"></path>
            <path d="M25.36,167.922 C26.438,166.976 32.284,175.441 32.284,175.441 C32.284,175.441 46.152,154.863 48.068,155.542 C49.984,156.222 34.055,179.542 32.284,179.542 C30.513,179.542 24.283,168.868 25.36,167.922" id="Fill-14" fill="#9DC850"></path>
            <path d="M100.69,156.737 C98.936,157.772 107.345,168.273 107.345,168.273 C107.345,168.273 97.732,180.253 99.063,181.584 C100.394,182.915 109.415,169.9 109.415,169.9 C109.415,169.9 117.106,181.288 119.029,180.548 C120.951,179.809 110.782,168.125 110.782,168.125 C110.782,168.125 118.767,157.92 117.698,156.737 C116.628,155.554 109.115,165.801 109.115,165.801 C109.115,165.801 102.443,155.702 100.69,156.737" id="Fill-15" fill="#DB3734"></path>
        </g>
    </g>
</svg>